<?xml version="1.0" encoding="UTF-8"?>
<svg version="1.1" xmlns="http://www.w3.org/2000/svg" width="1254" height="1254">
<path d="M0 0 C413.82 0 827.64 0 1254 0 C1254 413.82 1254 827.64 1254 1254 C840.18 1254 426.36 1254 0 1254 C0 840.18 0 426.36 0 0 Z " fill="#020309" transform="translate(0,0)"/>
<path d="M0 0 C1.25703735 -0.00571014 2.51407471 -0.01142029 3.8092041 -0.01730347 C5.18461599 -0.01854855 6.56002799 -0.01967371 7.93544006 -0.02069092 C9.39817936 -0.02532541 10.86091745 -0.03035092 12.32365417 -0.03573608 C16.284931 -0.0488062 20.24619091 -0.05529514 24.20748591 -0.05974674 C26.68964215 -0.0626878 29.17179388 -0.06679463 31.65394783 -0.07125092 C39.44087893 -0.08491519 47.22779959 -0.09458559 55.01474184 -0.09845281 C63.96394847 -0.1029231 72.91300158 -0.12042755 81.86216158 -0.1494534 C88.80432436 -0.17117735 95.7464443 -0.18116286 102.68864065 -0.18249393 C106.82283134 -0.18353485 110.95687753 -0.1892881 115.09103203 -0.20731354 C118.98911476 -0.22397941 122.88694726 -0.22586163 126.78505325 -0.21717453 C128.20223353 -0.21641378 129.61942832 -0.22061679 131.03657341 -0.23063278 C144.56037218 -0.32047547 157.6707966 1.48849123 170.34584045 6.39044189 C171.14715393 6.69562744 171.94846741 7.00081299 172.77406311 7.31524658 C179.25230008 9.86771655 184.98455513 12.89970356 190.53334045 17.14044189 C191.57748108 17.93063721 192.6216217 18.72083252 193.69740295 19.53497314 C218.90508246 39.35186489 231.03078863 70.36959287 236.53334045 101.14044189 C236.86334045 101.14044189 237.19334045 101.14044189 237.53334045 101.14044189 C237.66869202 100.35024658 237.80404358 99.56005127 237.9434967 98.74591064 C242.90130585 72.76936572 254.89701791 47.94316017 273.53334045 29.14044189 C274.39959045 28.26130127 275.26584045 27.38216064 276.15834045 26.47637939 C298.19493321 5.2923929 325.77618515 0.00644557 355.47084045 -0.02069092 C356.8112552 -0.02533516 358.15166867 -0.03036188 359.49208069 -0.03573608 C363.09124209 -0.04869857 366.69038501 -0.05527168 370.28956604 -0.05974674 C372.54693337 -0.06270089 374.8042959 -0.06680956 377.06166077 -0.07125092 C384.15071077 -0.08487666 391.23974948 -0.09457002 398.32881165 -0.09845281 C406.46523708 -0.10293645 414.60149479 -0.12051933 422.73786926 -0.1494534 C429.06270176 -0.17115311 435.38748729 -0.18116131 441.71235657 -0.18249393 C445.47469079 -0.18353505 449.23686628 -0.18929477 452.99916077 -0.20731354 C456.53864239 -0.22394131 460.07784828 -0.2258796 463.61735535 -0.21717453 C465.51246673 -0.21605277 467.40756961 -0.22965135 469.30262756 -0.243927 C481.25242225 -0.18656782 492.97852725 1.43773922 502.53334045 9.14044189 C512.86433421 20.10617891 514.10009345 32.11268238 513.8497467 46.46075439 C513.25434703 61.3332902 508.44670831 73.89653477 498.15834045 84.77716064 C482.6068552 98.77812579 461.3393415 97.57567772 441.72457123 97.5511322 C437.77934379 97.5465975 433.8343989 97.56039302 429.88923645 97.57952881 C420.81107456 97.62020665 411.73292358 97.63189836 402.65468597 97.64305878 C394.30907696 97.65361788 385.96360685 97.67059845 377.61808276 97.71115446 C373.08479434 97.7322176 368.55183036 97.7306936 364.01850891 97.72503662 C361.6279414 97.73438343 359.23737692 97.7445538 356.84681702 97.75567627 C355.2598275 97.74645393 355.2598275 97.74645393 353.64077759 97.73704529 C336.59806179 97.87526318 322.32435605 103.32615183 310.22865295 115.28106689 C297.08322057 129.22665603 292.05077181 145.80505908 292.14807129 164.68241882 C292.14283559 165.99431987 292.1375999 167.30622092 292.13220555 168.65787655 C292.11816819 172.26564375 292.1224486 175.87318346 292.12991869 179.48096144 C292.13468601 183.38494349 292.12207043 187.28887516 292.11155701 191.19284058 C292.09562605 197.94848963 292.09030178 204.70407879 292.09208488 211.45974541 C292.09447585 221.24128136 292.07843482 231.02272219 292.05763233 240.8042332 C292.02414902 256.69534854 292.00246006 272.58645534 291.98963928 288.4776001 C291.98848505 289.90228703 291.98848505 289.90228703 291.9873075 291.35575552 C291.98420536 295.20388906 291.98112255 299.05202262 291.97806745 302.9001562 C291.96953787 313.49107711 291.95863558 324.08199505 291.94667053 334.6729126 C291.94560251 335.62123525 291.94453449 336.56955791 291.94343411 337.54661762 C291.9253184 353.37967738 291.89931418 369.21271688 291.86853939 385.04575688 C291.85002912 394.79831591 291.83907235 404.55082938 291.83801747 414.30340625 C291.83691085 420.98881408 291.82892958 427.6741907 291.81563383 434.35958534 C291.80824417 438.21133189 291.80409593 442.06301012 291.80875206 445.9147625 C291.81376317 450.10039778 291.80333939 454.28585946 291.79162598 458.47148132 C291.79560707 459.67442335 291.79958816 460.87736538 291.8036899 462.11676019 C291.70599921 481.89104419 287.2715188 501.35615141 273.56459045 516.26544189 C261.70713799 527.21078263 247.49314205 531.31732716 231.78334045 531.32794189 C230.84490295 531.34018799 229.90646545 531.35243408 228.93959045 531.36505127 C212.84536549 531.39839566 199.47914663 526.06503603 187.9356842 514.79278564 C174.62677404 500.09888321 171.21188556 480.9075067 171.27505493 461.68748474 C171.27137923 460.37306013 171.26770352 459.05863552 171.26391643 457.70437986 C171.25400783 454.08492436 171.25628945 450.4655666 171.26064336 446.84610403 C171.26313302 442.93118952 171.25403408 439.01629983 171.2462616 435.10139465 C171.23424794 428.32500459 171.22911031 421.54863799 171.2283802 414.77223778 C171.22705071 404.95959965 171.21190526 395.14701816 171.19288503 385.3344001 C171.16207891 369.39174331 171.13789756 353.44908509 171.12001038 337.50640869 C171.11840136 336.07678105 171.11840136 336.07678105 171.11675983 334.61827204 C171.10494283 323.98802899 171.09473615 313.35778535 171.08631897 302.72753906 C171.08324496 298.87355549 171.08015618 295.01957192 171.07704163 291.16558838 C171.07589362 289.73907792 171.07589362 289.73907792 171.07472242 288.28374907 C171.06162139 272.40211511 171.03695613 256.52052222 171.00329822 240.6389187 C170.98306007 230.85647419 170.97271166 221.07411766 170.97528743 211.29165206 C170.9763259 204.58378457 170.96663117 197.87598649 170.9486484 191.16814324 C170.93864822 187.30410048 170.93342676 183.44021138 170.94141579 179.57616043 C170.94999721 175.37541971 170.9352828 171.17506634 170.91860962 166.97434998 C170.92482143 165.76974772 170.93103325 164.56514547 170.9374333 163.32404011 C170.8566566 152.09875622 169.22018909 140.90353598 163.90834045 130.89044189 C163.56279114 130.22278809 163.21724182 129.55513428 162.86122131 128.86724854 C155.28166229 114.81712714 142.99829384 105.63650205 128.34584045 99.89044189 C121.49245637 98.06287281 114.79024928 97.98539664 107.73963928 97.96685791 C106.67524628 97.9601709 105.61085327 97.95348389 104.51420593 97.94659424 C102.21057064 97.93258518 99.90692181 97.92067808 97.60326576 97.91064644 C93.94902257 97.89416161 90.29487913 97.87091955 86.64068604 97.8457489 C76.25331138 97.7751881 65.86589591 97.71498491 55.47840881 97.66363525 C49.11603619 97.63171015 42.75377901 97.59040096 36.39150047 97.54343987 C33.97598548 97.52750126 31.56044397 97.51514249 29.14489174 97.50653267 C25.7544811 97.49427524 22.36433812 97.47008205 18.97401428 97.44342041 C17.99022293 97.44283127 17.00643158 97.44224213 15.99282837 97.44163513 C0.65438403 97.28311564 -14.05085434 94.50905964 -25.3143158 83.46466064 C-36.82593071 71.03378791 -41.18575072 56.30565905 -40.68540955 39.33575439 C-39.80450037 26.46818816 -37.40243386 17.00528173 -27.84165955 7.93341064 C-19.6260406 1.73115884 -10.07663033 0.02759347 0 0 Z " fill="#4464F0" transform="translate(390.46665954589844,404.85955810546875)"/>
<path d="M0 0 C2.4665315 1.58980229 4.53960495 3.1137839 6.75 5 C7.35690674 5.49894775 7.96381348 5.99789551 8.58911133 6.51196289 C9.81784287 7.52238284 11.04227491 8.53805544 12.26220703 9.55908203 C14.69349088 11.57501871 17.19344021 13.50011728 19.6875 15.4375 C22.62015771 17.71955129 25.02855022 19.82479895 27 23 C27.65719946 29.79106107 25.32213146 33.41409561 21.125 38.5625 C20.12139619 39.77606829 19.11614195 40.98827329 18.109375 42.19921875 C-3.6197607 68.37048425 -18.11831707 100.88879411 -24.62988281 134.11669922 C-24.95274462 135.75954619 -25.29863629 137.39783373 -25.6484375 139.03515625 C-30.62572524 163.52485464 -28.78020733 189.86205267 -23 214 C-22.82065918 214.77811035 -22.64131836 215.5562207 -22.45654297 216.35791016 C-20.08126205 226.64947342 -17.53777553 236.42146659 -13 246 C-12.21948791 247.72370298 -11.43960332 249.44769016 -10.66015625 251.171875 C-2.14558924 269.74398028 8.11549971 286.18531496 21 302 C22.21831998 303.57566187 23.42859128 305.15763696 24.625 306.75 C25.29402344 307.63945313 25.29402344 307.63945313 25.9765625 308.546875 C29.37058971 313.36587547 28.91155696 319.3818878 28 325 C26.41808301 330.69884889 23.84856495 336.08717653 21.49560547 341.49853516 C18.57646939 348.33272543 15.82106756 355.23488774 13.03713989 362.125 C12.00514674 364.67478376 10.96802003 367.22242281 9.92944336 369.76953125 C9.28627438 371.35025179 8.64312569 372.93098059 8 374.51171875 C7.69723648 375.2524614 7.39447296 375.99320404 7.08253479 376.75639343 C5.63281489 379.78572829 5.63281489 379.78572829 5 383 C12.91073129 380.07917926 20.7934989 377.10237372 28.62237549 373.96783447 C32.20383283 372.53579897 35.79284254 371.12320725 39.38232422 369.71142578 C41.21756557 368.98445195 43.04960803 368.24935237 44.87841797 367.50634766 C68.67553873 357.85955328 68.67553873 357.85955328 80.30175781 362.24560547 C83.66934883 363.88649537 86.85367145 365.69309475 90.0625 367.625 C92.21779878 368.87109308 94.37535325 370.11329283 96.53515625 371.3515625 C97.59138184 371.9612085 98.64760742 372.57085449 99.73583984 373.19897461 C107.28574568 377.36469303 115.04731255 381.02364041 123.390625 383.26171875 C125.67639132 383.90844006 127.90664219 384.63010699 130.15625 385.390625 C144.11668233 390.08104242 158.22187317 394.35668715 172.9921875 395.23828125 C181.43787296 395.82746929 186.83188925 397.24615306 192.921875 403.578125 C193.60765625 404.37734375 194.2934375 405.1765625 195 406 C195.56203125 406.65484375 196.1240625 407.3096875 196.703125 407.984375 C197.78938509 409.26046695 198.86471747 410.54593089 199.9296875 411.83984375 C201.66908068 413.65472003 203.34042875 415.10189752 205.3203125 416.62890625 C214.47930441 423.69926622 214.47930441 423.69926622 216.01171875 427.52734375 C216.21414899 431.72253604 215.31710341 433.58600388 212.75 436.9375 C207.77623328 440.66782504 204.19526683 441.35626665 198 441.3125 C196.78038574 441.30730347 196.78038574 441.30730347 195.53613281 441.30200195 C178.29401095 441.01399678 160.78850077 438.93541069 144 435 C142.75992188 434.74863281 141.51984375 434.49726562 140.2421875 434.23828125 C131.12474465 432.33899976 122.36910173 429.5826511 113.5625 426.5625 C111.92800903 426.0053833 111.92800903 426.0053833 110.26049805 425.43701172 C104.35527909 423.36524263 98.7627627 421.04828022 93.22802734 418.12255859 C90.88494141 416.94202943 88.51673719 415.98702914 86.0625 415.0625 C82.2564782 413.61059529 78.88390507 411.81662409 75.375 409.75 C70.81188074 407.24538287 67.19802534 405.78024676 62 407 C58.30669203 408.19322258 54.74270823 409.65175287 51.15625 411.13134766 C46.80489642 412.88430463 42.39646351 414.48939059 38 416.125 C35.92553979 416.90169914 33.85132979 417.67906683 31.77734375 418.45703125 C30.68921387 418.86518066 29.60108398 419.27333008 28.47998047 419.69384766 C22.80869133 421.82247098 17.13788425 423.95228006 11.47094727 426.09246826 C9.60956978 426.7947412 7.74718013 427.49432952 5.88476562 428.19384766 C0.19776063 430.34429592 -5.39983543 432.5810263 -10.93286133 435.09985352 C-14.4262839 436.62108288 -18.01925526 437.83747134 -21.625 439.0625 C-25.70873278 440.45703556 -29.72252601 441.84500393 -33.640625 443.66015625 C-37.06598774 445.02631837 -39.46266225 445.40368672 -43.125 445.375 C-44.11757813 445.38273437 -45.11015625 445.39046875 -46.1328125 445.3984375 C-50.67562612 444.76714732 -53.24372804 442.81759131 -56.3125 439.5 C-58.68555629 434.57810548 -58.765417 430.37338195 -58 425 C-57.24358674 422.93300975 -56.30344786 421.17190491 -55.19921875 419.26953125 C-53.67969976 416.39382918 -52.68205884 413.45039125 -51.625 410.375 C-49.49221037 404.25140769 -47.06792677 398.3194871 -44.47265625 392.37890625 C-43.08916433 389.20458129 -41.75547345 386.01447311 -40.4375 382.8125 C-38.86840217 379.02260237 -37.22602604 375.28340349 -35.5 371.5625 C-33.15598465 366.47642897 -31.15466252 361.29363532 -29.2109375 356.04296875 C-28 353 -28 353 -26.546875 350.11328125 C-24.7432619 346.48328215 -23.29383589 342.79306881 -21.875 339 C-21.47861328 337.97132813 -21.47861328 337.97132813 -21.07421875 336.921875 C-18.82007311 331.10937861 -18.82007311 331.10937861 -18 325 C-19.46865286 322.50967558 -20.87245415 320.52090595 -22.6875 318.3125 C-23.71748431 316.98321398 -24.74200494 315.64968089 -25.76171875 314.3125 C-26.29716309 313.61125 -26.83260742 312.91 -27.38427734 312.1875 C-38.26692642 297.45366263 -49.57538789 279.97571278 -55.1875 262.46484375 C-56.08548576 259.7406658 -57.21153903 257.183923 -58.375 254.5625 C-62.01695901 245.97063384 -64.42728284 236.9555246 -67 228 C-67.53560547 226.18628906 -67.53560547 226.18628906 -68.08203125 224.3359375 C-81.7412414 174.69778658 -74.23976963 116.3640989 -53 70 C-52.72752441 69.38705078 -52.45504883 68.77410156 -52.17431641 68.14257812 C-45.21516279 52.50419947 -20.43900134 -2.82429837 0 0 Z " fill="#2F6CEF" transform="translate(359,526)"/>
<path d="M0 0 C7.47070187 5.85608011 13.18522111 12.52528746 18.41796875 20.45703125 C18.89621094 21.15828125 19.37445312 21.85953125 19.8671875 22.58203125 C30.33029169 39.48142982 31.76316787 58.54693775 27.45703125 77.57421875 C22.46429089 97.29703207 11.08458478 113.92134951 -6.08203125 124.95703125 C-25.47667491 136.04636912 -45.16879284 137.92094642 -66.58203125 132.45703125 C-86.2366089 126.37460734 -101.06680283 111.74116766 -110.70703125 93.95703125 C-119.83774545 74.76289549 -121.54341603 54.64060682 -114.58203125 34.45703125 C-111.08480994 25.38618486 -106.09415683 17.63220962 -99.58203125 10.45703125 C-98.83179688 9.61398437 -98.0815625 8.7709375 -97.30859375 7.90234375 C-71.65858175 -19.4078632 -29.8010889 -21.94346069 0 0 Z " fill="#0BA3F9" transform="translate(671.58203125,261.54296875)"/>
<path d="M0 0 C3.57440747 1.80325646 6.18556199 4.17999986 9 7 C9.59039063 7.54011719 10.18078125 8.08023438 10.7890625 8.63671875 C25.51928224 22.52617252 36.89998109 40.60397845 47 58 C47.36722168 58.62841797 47.73444336 59.25683594 48.11279297 59.90429688 C77.54970993 110.84163932 85.21710889 176.0474308 70.4375 232.79296875 C61.49748976 265.69096477 48.23582087 296.43472051 28 324 C27.53819336 324.63147949 27.07638672 325.26295898 26.60058594 325.91357422 C21.141765 333.32254789 15.24237853 340.24199442 9 347 C7.45688408 348.72787347 5.91521416 350.45703942 4.375 352.1875 C-1.13621688 358.30046153 -6.84196431 364.01894844 -13.1015625 369.3671875 C-14.26472716 370.36760484 -15.41042701 371.38937948 -16.5234375 372.4453125 C-21.16635331 376.72910775 -26.24545786 378.80208615 -32.51953125 379.1328125 C-38.6707351 378.81155147 -43.32679294 377.03644213 -48 373 C-51.67283154 368.38541678 -53.11364287 364.56918748 -53.3125 358.75 C-53.34988281 358.04359375 -53.38726563 357.3371875 -53.42578125 356.609375 C-52.18319073 348.99423311 -47.61820138 344.15184863 -42 339.25 C-40.6521725 338.03157575 -39.30583868 336.81149732 -37.9609375 335.58984375 C-37.29288086 334.98769043 -36.62482422 334.38553711 -35.93652344 333.76513672 C-27.56909667 326.13824621 -19.87543054 318.00726046 -13 309 C-12.50886719 308.35820801 -12.01773438 307.71641602 -11.51171875 307.05517578 C-3.28752112 296.22714915 3.82672828 285.11511303 10 273 C10.35932617 272.29520508 10.71865234 271.59041016 11.08886719 270.86425781 C18.16697127 256.79285642 23.86304155 242.21122458 27.75 226.9375 C28.02976685 225.84344849 28.02976685 225.84344849 28.31518555 224.72729492 C28.93254251 222.16065204 29.47497055 219.58723439 30 217 C30.26111572 215.73583252 30.52223145 214.47166504 30.79125977 213.16918945 C33.17187252 200.87488979 33.51474642 188.80813198 33.4375 176.3125 C33.43393494 174.7943721 33.43393494 174.7943721 33.43029785 173.24557495 C33.37589798 158.45012511 32.71534639 144.38798905 29 130 C28.68283173 128.63719749 28.36764179 127.27393263 28.0546875 125.91015625 C27.15023339 122.22773593 26.12004032 118.62225806 25 115 C24.61585938 113.741875 24.23171875 112.48375 23.8359375 111.1875 C17.34370434 90.98916762 7.43161867 72.13511426 -5 55 C-5.61270752 54.13713379 -5.61270752 54.13713379 -6.23779297 53.25683594 C-10.98834331 46.5682204 -16.14484963 40.47820371 -21.8359375 34.5703125 C-26.85612403 28.60770828 -27.55059898 23.65167519 -27.34375 16.05859375 C-26.61228757 9.55024052 -22.4087186 6.20873449 -17.68359375 2.19921875 C-12.69735092 -1.35246698 -5.78639082 -0.81413173 0 0 Z " fill="#A944E9" transform="translate(940,524)"/>
<path d="M0 0 C5.96209341 3.5253042 9.4656407 8.86038807 11.5625 15.375 C11.94002342 19.0223217 11.94002342 19.0223217 11.94345093 22.98971558 C11.95047089 24.09172104 11.95047089 24.09172104 11.95763266 25.21598923 C11.96953322 27.66094454 11.96014504 30.10533418 11.95068359 32.55029297 C11.95475157 34.31010259 11.96009472 36.06990966 11.96661377 37.82971191 C11.98026828 42.59840858 11.97499587 47.36691011 11.96547651 52.1356101 C11.95786788 57.13355367 11.96492909 62.13148081 11.96963501 67.12942505 C11.97509006 75.52397655 11.96790856 83.91844882 11.95361328 92.31298828 C11.9372979 102.00543924 11.94256822 111.69770075 11.9590925 121.39014709 C11.97272719 129.72243582 11.97461701 138.05466767 11.96677649 146.38696396 C11.96210951 151.35871427 11.96144805 156.33037568 11.97138596 161.30212021 C11.98008183 165.97911141 11.97398596 170.65585963 11.95670319 175.33282471 C11.95275186 177.04480715 11.95384908 178.75681021 11.96049118 180.46878433 C11.99557131 190.43283249 11.95062172 198.93347117 6.5 207.6875 C1.52018321 212.24350259 -4.31678016 214.50568056 -11.0625 214.9375 C-16.8129287 214.64286673 -20.88953739 211.7871575 -24.9765625 207.91796875 C-29.8957451 202.46659388 -30.7360468 196.78673978 -30.71838379 189.6907196 C-30.72432603 188.93648596 -30.73026828 188.18225232 -30.73639059 187.40516311 C-30.75367729 184.88814587 -30.75677353 182.37131985 -30.75976562 179.85424805 C-30.76902807 178.04532468 -30.77907821 176.23640521 -30.78985596 174.42749023 C-30.81604663 169.52037438 -30.82898221 164.61331317 -30.83787727 159.70613837 C-30.84374706 156.63825548 -30.85195816 153.57038739 -30.86088562 150.50251198 C-30.88821832 140.8975404 -30.90756092 131.29260283 -30.9152894 121.68759507 C-30.92425171 110.61118134 -30.95935918 99.53526111 -31.01729059 88.45899743 C-31.06055391 79.8889451 -31.08069947 71.3190315 -31.08337164 62.74887115 C-31.08546531 57.63386242 -31.09722811 52.51931815 -31.13301086 47.40442467 C-31.16602544 42.59186199 -31.17025889 37.78011162 -31.15273285 32.96747589 C-31.15119496 31.20547875 -31.15984038 29.44343744 -31.17964935 27.68155098 C-31.34948185 11.62937092 -31.34948185 11.62937092 -26.07894135 5.01321125 C-18.79604363 -2.25535488 -9.70298473 -4.3470839 0 0 Z " fill="#833FE6" transform="translate(839.4375,594.625)"/>
<path d="M0 0 C5.22174862 3.12714889 9.23721208 7.35743315 11.51171875 13.0546875 C11.78587341 16.3291626 11.78587341 16.3291626 11.81811523 20.26660156 C11.82643875 20.98585312 11.83476227 21.70510468 11.84333801 22.44615173 C11.86740631 24.82092733 11.87620723 27.19542791 11.8828125 29.5703125 C11.89178307 31.22694987 11.90090499 32.88358643 11.91017151 34.54022217 C11.92665671 38.01365118 11.93436044 41.48698388 11.93725586 44.96044922 C11.94263137 49.39686607 11.98027813 53.83236878 12.02600002 58.26852798 C12.05584629 61.69164271 12.06298109 65.11453964 12.06398201 68.53777313 C12.06817132 70.17236252 12.08055364 71.80695333 12.10149956 73.44141388 C12.29505944 89.85538687 12.29505944 89.85538687 6.51171875 96.0546875 C5.88007812 96.73402344 5.2484375 97.41335938 4.59765625 98.11328125 C4.03304687 98.56832031 3.4684375 99.02335938 2.88671875 99.4921875 C2.03207031 100.20181641 2.03207031 100.20181641 1.16015625 100.92578125 C-3.64719106 104.21801673 -9.94046821 103.68048644 -15.48828125 103.0546875 C-21.85888453 100.58235998 -25.69339235 96.14782498 -29.06948853 90.32978821 C-30.66570795 86.64512077 -30.8685257 84.0923585 -30.87646484 80.09057617 C-30.8817218 79.42140671 -30.88697876 78.75223724 -30.89239502 78.06278992 C-30.9055231 75.86583623 -30.89688015 73.66961644 -30.88671875 71.47265625 C-30.88874228 69.93337364 -30.89165604 68.39409197 -30.89541626 66.85481262 C-30.89983048 63.63285165 -30.89344054 60.41114079 -30.87939453 57.18920898 C-30.86234623 53.08046771 -30.87212153 48.97231633 -30.89011192 44.86359692 C-30.90101134 41.6849177 -30.89747465 38.50637564 -30.88972855 35.32769203 C-30.88774125 33.81398764 -30.89013354 32.30027039 -30.89716721 30.78658104 C-30.96409084 12.32986192 -30.96409084 12.32986192 -25.5859375 5.71484375 C-24.91433594 5.18761719 -24.24273438 4.66039062 -23.55078125 4.1171875 C-22.54724609 3.29927734 -22.54724609 3.29927734 -21.5234375 2.46484375 C-15.18318196 -1.92830836 -7.32734999 -2.78370282 0 0 Z " fill="#9340E8" transform="translate(767.48828125,649.9453125)"/>
<path d="M0 0 C4.25464975 2.50482512 7.37533497 6.12521887 9.625 10.5 C10.52795676 14.85902519 10.76572055 19.03486862 10.80200195 23.47998047 C10.81185875 24.4861441 10.81185875 24.4861441 10.82191467 25.51263428 C10.84149213 27.71415345 10.8532731 29.91560505 10.86328125 32.1171875 C10.86735678 32.87397923 10.8714323 33.63077095 10.87563133 34.41049576 C10.89642241 38.41379771 10.91075593 42.41706605 10.92016602 46.42041016 C10.93123659 50.53825745 10.96566348 54.65556536 11.00533772 58.77322197 C11.03156256 61.9561153 11.03986284 65.13888086 11.04344749 68.32187271 C11.0482956 69.83923118 11.05985862 71.35658463 11.07848549 72.87383652 C11.18638628 82.24241145 11.0861534 89.42021009 4.625 96.77734375 C3.965 97.32519531 3.305 97.87304688 2.625 98.4375 C1.965 99.00339844 1.305 99.56929687 0.625 100.15234375 C-3.85464787 103.17085648 -9.15040826 102.98703821 -14.375 102.5 C-20.77908694 100.43766692 -25.88103246 97.39964851 -29.02261353 91.30213928 C-30.56370975 87.48103583 -30.75559165 84.04679941 -30.76318359 79.91577148 C-30.76844055 79.19286926 -30.77369751 78.46996704 -30.77911377 77.72515869 C-30.79222137 75.35691142 -30.78361002 72.98934679 -30.7734375 70.62109375 C-30.77546068 68.96395235 -30.77837415 67.30681183 -30.78213501 65.64967346 C-30.78654564 62.1857145 -30.78016733 58.72198843 -30.76611328 55.25805664 C-30.74900861 50.82733629 -30.75887848 46.39716069 -30.77683067 41.96646023 C-30.78769129 38.54771346 -30.78421198 35.12909503 -30.7764473 31.71034431 C-30.77445228 30.07693479 -30.77687995 28.44351344 -30.78388596 26.81011772 C-30.79153972 24.52471073 -30.77984303 22.2401763 -30.76318359 19.95483398 C-30.76079681 18.65690414 -30.75841003 17.3589743 -30.75595093 16.02171326 C-30.12589512 10.19714186 -27.80803795 6.40688601 -23.375 2.6875 C-22.694375 2.10355469 -22.01375 1.51960937 -21.3125 0.91796875 C-15.66515137 -3.21507067 -6.21832549 -2.73028992 0 0 Z " fill="#8A3FE7" transform="translate(911.375,650.5)"/>
<path d="M0 0 C0.33 0 0.66 0 1 0 C1.04580975 40.03524352 1.08103561 80.07048362 1.10213066 120.10574813 C1.10463198 124.83571689 1.10722063 129.56568561 1.10986328 134.2956543 C1.1103879 135.23727853 1.11091252 136.17890276 1.11145304 137.14906106 C1.12014805 152.38188961 1.13591304 167.61470301 1.15430559 182.84752258 C1.17302981 198.48582602 1.18412206 214.12412154 1.18817699 229.76243573 C1.19091682 239.40672424 1.1995604 249.05096992 1.21583293 258.69524524 C1.22643095 265.31488026 1.22959426 271.93449324 1.22700275 278.55413612 C1.22572584 282.36935297 1.22763897 286.18449517 1.23841095 289.99969864 C1.2500331 294.14655035 1.24595376 298.29324484 1.24050903 302.44010925 C1.24633472 303.63178198 1.2521604 304.8234547 1.25816262 306.05123872 C1.18838592 325.79284344 -3.29049968 345.24690316 -16.96875 360.125 C-28.93051179 371.16662627 -43.17008229 375.18798376 -59 375.125 C-60.45792969 375.13080078 -60.45792969 375.13080078 -61.9453125 375.13671875 C-66.74189231 375.1301839 -71.28506547 375.00351647 -76 374 C-76 373.67 -76 373.34 -76 373 C-74.2709226 372.97274659 -72.54171824 372.95349013 -70.8125 372.9375 C-69.84957031 372.92589844 -68.88664063 372.91429687 -67.89453125 372.90234375 C-65 373 -65 373 -60 374 C-60 312.95 -60 251.9 -60 189 C-59.67 189 -59.34 189 -59 189 C-59 250.05 -59 311.1 -59 374 C-55.7 373.34 -52.4 372.68 -49 372 C-47.18821284 371.74488525 -45.3758558 371.49371502 -43.5625 371.25 C-32.29787665 369.18746333 -20.51659387 361.43191217 -14 352 C-13.34 351.01 -12.68 350.02 -12 349 C-11.34 349 -10.68 349 -10 349 C-9.9175 348.360625 -9.835 347.72125 -9.75 347.0625 C-9.08763123 344.35782754 -8.26189079 342.35849691 -7.0625 339.875 C-1.5734021 327.84273829 -1.83985672 313.43575973 -1.88647461 300.44178772 C-1.88625132 298.79335228 -1.88625132 298.79335228 -1.88602352 297.11161512 C-1.88671289 293.46249215 -1.89453231 289.81342077 -1.90234375 286.16430664 C-1.90426501 283.53294796 -1.90577983 280.90159204 -1.9067688 278.27023315 C-1.9096453 272.61470466 -1.91606953 266.95918936 -1.92483521 261.30366707 C-1.93747299 253.08665154 -1.94348625 244.8696408 -1.94776857 236.65261715 C-1.95482776 223.26474551 -1.96561531 209.87687992 -1.97949219 196.48901367 C-1.98032 195.68906734 -1.98114781 194.88912101 -1.98200071 194.06493389 C-1.98873045 187.59014631 -1.99564325 181.11535893 -2.00260353 174.64057159 C-2.00864845 169.0171357 -2.01463282 163.39369975 -2.02050781 157.77026367 C-2.02133594 156.97888648 -2.02216407 156.18750929 -2.02301729 155.37215097 C-2.03682047 142.06117813 -2.04651853 128.7502052 -2.05341816 115.43922704 C-2.05745109 107.9940496 -2.06361279 100.54888578 -2.07516479 93.1037159 C-2.1575218 39.29477533 -2.1575218 39.29477533 -1.55859375 16.69311523 C-1.53906206 15.92137785 -1.51953037 15.14964047 -1.49940681 14.3545171 C-1.44408588 12.26188064 -1.38125463 10.16966731 -1.31420898 8.07737732 C-1.25981911 6.36855204 -1.25981911 6.36855204 -1.20433044 4.62520504 C-1 2 -1 2 0 0 Z " fill="#8C45F5" transform="translate(681,561)"/>
<path d="M0 0 C1.25703735 -0.00571014 2.51407471 -0.01142029 3.8092041 -0.01730347 C5.18461599 -0.01854855 6.56002799 -0.01967371 7.93544006 -0.02069092 C9.39817936 -0.02532541 10.86091745 -0.03035092 12.32365417 -0.03573608 C16.284931 -0.0488062 20.24619091 -0.05529514 24.20748591 -0.05974674 C26.68964215 -0.0626878 29.17179388 -0.06679463 31.65394783 -0.07125092 C39.44087893 -0.08491519 47.22779959 -0.09458559 55.01474184 -0.09845281 C63.96394847 -0.1029231 72.91300158 -0.12042755 81.86216158 -0.1494534 C88.80432436 -0.17117735 95.7464443 -0.18116286 102.68864065 -0.18249393 C106.82283134 -0.18353485 110.95687753 -0.1892881 115.09103203 -0.20731354 C118.98911476 -0.22397941 122.88694726 -0.22586163 126.78505325 -0.21717453 C128.20223353 -0.21641378 129.61942832 -0.22061679 131.03657341 -0.23063278 C138.65106336 -0.28121814 145.96056688 0.1776773 153.4437561 1.53771973 C154.1385271 1.66242543 154.83329809 1.78713113 155.54912275 1.9156158 C157.22689676 2.25032867 158.88376758 2.68671545 160.53334045 3.14044189 C160.86334045 3.80044189 161.19334045 4.46044189 161.53334045 5.14044189 C157.97144704 5.3231031 154.90730244 5.04600394 151.47938538 4.16070557 C146.24911267 2.96686559 141.183746 2.77276992 135.8341217 2.69122314 C134.76998047 2.6689415 133.70583923 2.64665985 132.60945129 2.623703 C129.02167734 2.55445222 125.4339431 2.50213057 121.84584045 2.45294189 C120.59487579 2.43364624 119.34391113 2.41435059 118.05503845 2.39447021 C91.96142379 2.01016408 65.86725396 2.14539301 39.772686 2.36538315 C36.60540305 2.39036647 33.43812387 2.41028843 30.27079773 2.42892456 C25.217225 2.45974966 20.16401266 2.50610971 15.11067963 2.56399727 C13.23686799 2.58340675 11.36300064 2.59812161 9.48911285 2.60767937 C-9.7221146 2.12573902 -9.7221146 2.12573902 -26.09165955 10.51544189 C-26.86767517 11.26567627 -27.6436908 12.01591064 -28.44322205 12.78887939 C-32.03541354 16.96358843 -33.83813071 20.72633802 -35.09165955 26.07794189 C-35.45130798 27.57647705 -35.45130798 27.57647705 -35.81822205 29.10528564 C-37.03759436 34.81282956 -37.60314471 40.10124924 -37.59165955 45.95294189 C-37.59552673 46.63292236 -37.59939392 47.31290283 -37.6033783 48.01348877 C-37.88715787 51.36087795 -37.88715787 51.36087795 -36.46665955 54.14044189 C-36.44603455 55.35731689 -36.42540955 56.57419189 -36.40415955 57.82794189 C-35.938462 62.58416439 -34.06171014 66.30206316 -31.71665955 70.39044189 C-31.38142273 70.98042969 -31.04618591 71.57041748 -30.70079041 72.17828369 C-28.38635997 76.05685916 -25.75152987 79.06216718 -22.46665955 82.14044189 C-21.83372986 82.83782471 -21.20080017 83.53520752 -20.5486908 84.25372314 C-17.95379429 86.60519596 -15.3356074 87.87367255 -12.15415955 89.32794189 C-11.06490173 89.83712158 -9.97564392 90.34630127 -8.8533783 90.87091064 C-1.9595947 93.45508558 5.08012958 93.29495941 12.34291077 93.31402588 C13.94190971 93.3240564 13.94190971 93.3240564 15.57321167 93.33428955 C17.88012317 93.34829823 20.18704819 93.36020544 22.49398041 93.37023735 C26.15214957 93.38671894 29.81021895 93.40996034 33.46833801 93.43513489 C43.86674481 93.50570863 54.26519217 93.56593289 64.66371155 93.61724854 C71.03256365 93.64915147 77.4012999 93.6904541 83.77005768 93.73744392 C86.18919023 93.75339426 88.60834939 93.76574772 91.02751923 93.77435112 C94.42052893 93.78659154 97.81326936 93.81077767 101.20619202 93.83746338 C102.19357864 93.83805252 103.18096527 93.83864166 104.19827271 93.83924866 C110.82251838 93.90780902 117.05583707 94.7635142 123.53334045 96.14044189 C123.53334045 96.47044189 123.53334045 96.80044189 123.53334045 97.14044189 C108.61608471 97.18731064 93.69883471 97.22250326 78.78152084 97.24406624 C71.85404234 97.25434759 64.92660977 97.26834731 57.99916077 97.2913208 C51.30776085 97.31350077 44.61641839 97.32502721 37.92498016 97.33019638 C35.37825522 97.33387794 32.83153274 97.34106696 30.28482819 97.35190201 C26.70452338 97.36652207 23.12441272 97.36841544 19.54408264 97.36749268 C17.9817691 97.3782785 17.9817691 97.3782785 16.38789368 97.38928223 C0.91213465 97.34641439 -13.94243551 94.61536984 -25.3143158 83.46466064 C-36.82593071 71.03378791 -41.18575072 56.30565905 -40.68540955 39.33575439 C-39.80450037 26.46818816 -37.40243386 17.00528173 -27.84165955 7.93341064 C-19.6260406 1.73115884 -10.07663033 0.02759347 0 0 Z " fill="#03BCF0" transform="translate(390.46665954589844,404.85955810546875)"/>
<path d="M0 0 C0.33 0 0.66 0 1 0 C1 104.28 1 208.56 1 316 C0.67 316 0.34 316 0 316 C-0.00423194 315.13647667 -0.00846388 314.27295334 -0.01282406 313.38326263 C-0.11774926 292.02211202 -0.22657114 270.66098405 -0.33933926 249.29987335 C-0.39379409 238.96831571 -0.44707742 228.63675486 -0.49731445 218.30517578 C-0.71857641 172.93269554 -1.03222384 127.56953087 -1.84883881 82.20347881 C-2.22126656 60.95900854 -2.09119242 39.74040935 -1.5625 18.5 C-1.5429425 17.67803131 -1.52338501 16.85606262 -1.50323486 16.00918579 C-1.44652593 13.70384804 -1.3828361 11.3988258 -1.31640625 9.09375 C-1.29968369 8.40290817 -1.28296112 7.71206635 -1.26573181 7.00028992 C-1.11537714 2.23075429 -1.11537714 2.23075429 0 0 Z " fill="#6849D9" transform="translate(681,561)"/>
<path d="M0 0 C3.32497236 1.67378195 6.50982365 3.481456 9.69873047 5.40136719 C11.85402925 6.64746026 14.01158372 7.88966001 16.17138672 9.12792969 C17.2276123 9.73757568 18.28383789 10.34722168 19.37207031 10.9753418 C26.92197615 15.14106022 34.68354302 18.8000076 43.02685547 21.03808594 C45.31262178 21.68480725 47.54287265 22.40647418 49.79248047 23.16699219 C63.7529128 27.85740961 77.85810363 32.13305433 92.62841797 33.01464844 C101.07410342 33.60383648 106.46811972 35.02252025 112.55810547 41.35449219 C113.24388672 42.15371094 113.92966797 42.95292969 114.63623047 43.77636719 C115.19826172 44.43121094 115.76029297 45.08605469 116.33935547 45.76074219 C117.42561556 47.03683414 118.50094794 48.32229808 119.56591797 49.61621094 C121.30531115 51.43108721 122.97665921 52.87826471 124.95654297 54.40527344 C134.11553488 61.47563341 134.11553488 61.47563341 135.64794922 65.30371094 C135.85037946 69.49890323 134.95333388 71.36237107 132.38623047 74.71386719 C127.24669833 78.56851629 123.53470099 79.09909922 117.13623047 79.02636719 C115.90199341 79.02056641 115.90199341 79.02056641 114.64282227 79.01464844 C105.25142906 78.88710334 95.95582305 77.87625588 86.63623047 76.77636719 C86.96623047 76.11636719 87.29623047 75.45636719 87.63623047 74.77636719 C90.78244729 74.91458917 93.92808613 75.06321803 97.07373047 75.21386719 C97.9715625 75.25318359 98.86939453 75.2925 99.79443359 75.33300781 C100.6484375 75.37490234 101.50244141 75.41679688 102.38232422 75.45996094 C103.1730835 75.49661865 103.96384277 75.53327637 104.77856445 75.57104492 C106.63623047 75.77636719 106.63623047 75.77636719 107.63623047 76.77636719 C108.9789046 76.86268593 110.32597369 76.88343192 111.67138672 76.87402344 C112.48027344 76.87080078 113.28916016 76.86757813 114.12255859 76.86425781 C114.97269531 76.85587891 115.82283203 76.8475 116.69873047 76.83886719 C117.55273438 76.83435547 118.40673828 76.82984375 119.28662109 76.82519531 C121.4031871 76.81337092 123.51971732 76.79543487 125.63623047 76.77636719 C125.63623047 76.11636719 125.63623047 75.45636719 125.63623047 74.77636719 C126.44060547 74.46699219 127.24498047 74.15761719 128.07373047 73.83886719 C130.52703451 73.01301374 130.52703451 73.01301374 131.63623047 71.77636719 C132.49774998 67.96106651 132.81765001 66.41109489 131.63623047 62.77636719 C128.15935515 59.10748533 124.28361538 56.12824093 120.2734375 53.06787109 C115.86096002 49.58710672 111.83762581 45.55908285 108.69873047 40.90136719 C104.3691881 36.44062656 96.5035254 36.56653436 90.54858398 35.84008789 C60.80874239 32.16302675 30.32017542 22.10853128 4.80908203 6.22729492 C-2.21551595 1.87200464 -7.20173212 0.77853569 -15.36376953 1.77636719 C-16.34345703 1.86015625 -17.32314453 1.94394531 -18.33251953 2.03027344 C-20.68351703 2.23829709 -23.02174992 2.48620547 -25.36376953 2.77636719 C-17.68698162 -2.34149142 -8.71837051 -3.17146705 0 0 Z " fill="#4A41D7" transform="translate(439.36376953125,888.2236328125)"/>
<path d="M0 0 C0.598125 0.350625 1.19625 0.70125 1.8125 1.0625 C-2.01667894 4.89167894 -13.95374724 3.21535781 -18.99682617 3.22021484 C-20.15729462 3.22529556 -21.31776306 3.23037628 -22.51339722 3.23561096 C-25.02382349 3.24627748 -27.53425904 3.2549121 -30.04469872 3.26173019 C-34.02693598 3.27357572 -38.00909722 3.2927671 -41.99128723 3.31484985 C-53.31064056 3.37647602 -64.62998765 3.43068451 -75.94946289 3.46386719 C-82.21196439 3.48230491 -88.47432613 3.51135162 -94.73672467 3.5518719 C-98.040805 3.57278484 -101.34467483 3.58668076 -104.64882469 3.59067917 C-108.34315591 3.59562295 -112.03697514 3.61887034 -115.73120117 3.64599609 C-116.80333359 3.64298996 -117.875466 3.63998383 -118.98008728 3.6368866 C-128.43277017 3.73924528 -137.456357 5.36063943 -146.1875 9.0625 C-145.8575 8.0725 -145.5275 7.0825 -145.1875 6.0625 C-143.2075 5.7325 -141.2275 5.4025 -139.1875 5.0625 C-139.1875 4.4025 -139.1875 3.7425 -139.1875 3.0625 C-123.82924666 -0.03364889 -108.90895015 -0.31728632 -93.28125 -0.1953125 C-90.73726829 -0.18715723 -88.19328138 -0.18050097 -85.64929199 -0.17526245 C-79.68936717 -0.16002162 -73.72959805 -0.13211255 -67.76976538 -0.09701526 C-56.42433545 -0.03073716 -45.07879453 0.00575509 -33.73323059 0.04056168 C-30.01330718 0.0545203 -26.29348722 0.07609385 -22.5736084 0.09884644 C-20.31014067 0.10886288 -18.04667227 0.11872847 -15.78320312 0.12841797 C-14.74850388 0.13672638 -13.71380463 0.14503479 -12.64775085 0.15359497 C-11.70345718 0.15655579 -10.75916351 0.1595166 -9.78625488 0.16256714 C-8.55534496 0.16979451 -8.55534496 0.16979451 -7.29956818 0.17716789 C-0.45383143 -0.19449918 -0.45383143 -0.19449918 0 0 Z " fill="#5740CE" transform="translate(863.1875,498.9375)"/>
<path d="M0 0 C3.79805569 0.90823071 5.38503219 2.75812611 7.875 5.6875 C3.125 4.8125 3.125 4.8125 0.875 3.6875 C-11.24726183 8.01687923 -18.25603339 21.59510772 -25.125 31.6875 C-25.76050781 32.60660156 -26.39601563 33.52570312 -27.05078125 34.47265625 C-31.9532732 41.65537701 -35.98012601 49.24648291 -39.8125 57.04296875 C-40.70823981 58.84777783 -41.62597179 60.6417968 -42.5625 62.42578125 C-48.25161492 73.37436439 -52.39503941 84.94090769 -56.125 96.6875 C-56.54283848 97.95967821 -56.96082155 99.23180894 -57.37890625 100.50390625 C-57.83651728 101.91908349 -58.29354345 103.33444997 -58.75 104.75 C-58.96857666 105.41128906 -59.18715332 106.07257813 -59.41235352 106.75390625 C-60.51403938 110.21475348 -61.29715519 113.50734121 -61.7109375 117.12109375 C-62.125 120.6875 -62.125 120.6875 -63.125 121.6875 C-63.6644725 124.97873558 -64.0911339 128.27954015 -64.52734375 131.5859375 C-65.125 134.6875 -65.125 134.6875 -67.125 137.6875 C-68.12501742 116.68713422 -60.77170027 94.56537441 -52.125 75.6875 C-51.39700234 74.01885456 -50.67060212 72.34951179 -49.9453125 70.6796875 C-20.95742078 4.61063257 -20.95742078 4.61063257 0 0 Z " fill="#0893DD" transform="translate(356.125,525.3125)"/>
<path d="M0 0 C19.41159859 -0.07031158 38.82317106 -0.12309611 58.23487091 -0.15543652 C67.2495603 -0.17085679 76.26417023 -0.19185289 85.27880859 -0.22631836 C93.14274227 -0.25636984 101.00661835 -0.2756101 108.87060785 -0.28226548 C113.02838943 -0.28615127 117.18600633 -0.29518043 121.34373474 -0.31719017 C125.27043651 -0.33780524 129.19690839 -0.34378427 133.12365913 -0.33932304 C134.55212727 -0.34013722 135.98060445 -0.3459521 137.40902519 -0.35761642 C145.05830169 -0.41692755 152.39984735 0.02936715 159.9173584 1.39628601 C160.61171069 1.52105153 161.30606297 1.64581705 162.02145624 1.77436334 C163.69739161 2.10923464 165.35236163 2.54592298 167 3 C167.33 3.66 167.66 4.32 168 5 C164.42769853 5.18319495 161.35502771 4.90161831 157.91650391 4.01586914 C152.84038475 2.85686712 147.96515747 2.66834283 142.7734375 2.62109375 C141.75592407 2.6044165 140.73841064 2.58773926 139.69006348 2.57055664 C136.25177676 2.51694709 132.81347425 2.4771316 129.375 2.4375 C126.91161223 2.40239042 124.44823349 2.36664295 121.98486328 2.33032227 C113.88138128 2.21558386 105.77773121 2.1208867 97.6739502 2.0300293 C94.8376431 1.99817668 92.0013409 1.96591032 89.16503906 1.93359375 C59.44362668 1.5957543 29.721928 1.28864318 0 1 C0 0.67 0 0.34 0 0 Z " fill="#0E8AC8" transform="translate(384,405)"/>
<path d="M0 0 C0.33 0 0.66 0 1 0 C1 61.05 1 122.1 1 185 C5.95 184.01 5.95 184.01 11 183 C14.625 182.875 14.625 182.875 17 183 C16 185 16 185 14.24951172 185.61669922 C11.79493029 186.03494242 9.49798583 186.12955616 7.0078125 186.1328125 C6.05519531 186.13410156 5.10257813 186.13539063 4.12109375 186.13671875 C3.13238281 186.13285156 2.14367187 186.12898437 1.125 186.125 C0.14402344 186.12886719 -0.83695313 186.13273438 -1.84765625 186.13671875 C-6.6760025 186.13020276 -11.25443174 186.01346034 -16 185 C-16 184.67 -16 184.34 -16 184 C-14.2709226 183.97274659 -12.54171824 183.95349013 -10.8125 183.9375 C-9.84957031 183.92589844 -8.88664063 183.91429687 -7.89453125 183.90234375 C-5 184 -5 184 0 185 C0 123.95 0 62.9 0 0 Z " fill="#7142E9" transform="translate(621,750)"/>
<path d="M0 0 C8.80648701 -0.04656081 17.61293093 -0.08198892 26.41951466 -0.10362434 C30.50978286 -0.11401387 34.59996618 -0.12808359 38.69018555 -0.15087891 C42.64539601 -0.17278116 46.60052538 -0.18460485 50.55579185 -0.18975449 C52.0566911 -0.19341931 53.55758645 -0.20057475 55.0584507 -0.21146011 C63.56573742 -0.27064692 71.68029718 0.05057368 80 2 C80 2.33 80 2.66 80 3 C41.72 3 3.44 3 -36 3 C-36 2.67 -36 2.34 -36 2 C-24.12 1.67 -12.24 1.34 0 1 C0 0.67 0 0.34 0 0 Z " fill="#167ED3" transform="translate(434,499)"/>
<path d="M0 0 C2.02754039 1.82478635 3.37028096 3.56776414 4.875 5.875 C6.99794665 8.99698036 9.26778752 11.40790098 12 14 C12.41636719 14.47824219 12.83273437 14.95648438 13.26171875 15.44921875 C15.685216 17.61130506 18.30749067 18.76323405 21.25 20.125 C22.34828125 20.64320313 23.4465625 21.16140625 24.578125 21.6953125 C30.32603283 23.8868664 36.11473109 24.13150265 42.22045898 24.29711914 C42.90423111 24.31677231 43.58800323 24.33642548 44.29249573 24.35667419 C46.52694144 24.41996325 48.76149348 24.47760708 50.99609375 24.53515625 C52.5555161 24.57821732 54.11492866 24.62163403 55.67433167 24.66539001 C59.75946144 24.77906763 63.84470537 24.88794171 67.92999268 24.99578857 C72.10640355 25.10690064 76.28268733 25.22259297 80.45898438 25.33789062 C88.63920596 25.56305626 96.81955395 25.78314332 105 26 C105 26.33 105 26.66 105 27 C95.8715347 27.1166714 86.7433323 27.20510426 77.61427975 27.25906086 C73.37368573 27.28497833 69.13360771 27.32004208 64.89331055 27.37719727 C60.78891105 27.43216436 56.68500276 27.46155411 52.58026314 27.47438622 C51.02678269 27.48351173 49.47332423 27.50132579 47.9200573 27.52865028 C34.069686 27.76225454 20.55905361 25.88094925 10 16 C9.37609375 15.4534375 8.7521875 14.906875 8.109375 14.34375 C3.7747716 10.33697375 1.36664624 6.39595342 -1 1 C-0.67 0.67 -0.34 0.34 0 0 Z " fill="#0BADF3" transform="translate(357,474)"/>
<path d="M0 0 C3.79805569 0.90823071 5.38503219 2.75812611 7.875 5.6875 C3.125 4.8125 3.125 4.8125 0.875 3.6875 C-11.24726183 8.01687923 -18.25603339 21.59510772 -25.125 31.6875 C-25.76050781 32.60660156 -26.39601563 33.52570312 -27.05078125 34.47265625 C-29.92216824 38.67957207 -32.46320598 42.99221102 -34.890625 47.46875 C-36.83290626 50.9599391 -38.9712101 54.32392174 -41.125 57.6875 C-42.32691892 54.16303244 -42.17607484 53.79386687 -40.421875 50.140625 C-39.58755436 48.73081754 -38.73746034 47.33027068 -37.875 45.9375 C-37.42116943 45.18815186 -36.96733887 44.43880371 -36.49975586 43.66674805 C-11.26658977 2.47864975 -11.26658977 2.47864975 0 0 Z " fill="#089BE1" transform="translate(356.125,525.3125)"/>
<path d="M0 0 C0.66 0 1.32 0 2 0 C2.43972812 8.5014104 -1.74419936 13.00282048 -6.890625 19.19921875 C-18.38350594 33.04161186 -27.12868848 48.77162903 -34.875 64.9375 C-35.24447754 65.70618408 -35.61395508 66.47486816 -35.99462891 67.2668457 C-38.40163303 72.39960738 -40.32266396 77.58590532 -42 83 C-42.33 83 -42.66 83 -43 83 C-42.55629496 76.12257191 -41.23258665 70.14801386 -38 64 C-37.01 63.505 -37.01 63.505 -36 63 C-35.53194264 61.32926611 -35.06793724 59.65723826 -34.62939453 57.97851562 C-33.56347592 54.62777689 -31.74942969 51.74503226 -29.9375 48.75 C-27.10772209 44.05256639 -27.10772209 44.05256639 -25 39 C-24.02135122 37.97909522 -23.01941793 36.98019748 -22 36 C-21.17672599 34.88543413 -20.38323761 33.7483947 -19.6171875 32.59375 C-19.17624756 31.93769775 -18.73530762 31.28164551 -18.28100586 30.60571289 C-17.81702393 29.91082764 -17.35304199 29.21594238 -16.875 28.5 C-13.46404884 23.42553224 -9.96439803 18.66373681 -5.9375 14.0625 C-2.01920453 9.44450891 -0.68765781 5.99244666 0 0 Z " fill="#118DE1" transform="translate(384,549)"/>
<path d="M0 0 C2.375 1 2.375 1 4 2 C4 2.99 4 3.98 4 5 C3.01 4.67 2.02 4.34 1 4 C-6.14234293 3.20640634 -11.29637911 5.43022716 -17.84375 8.13134766 C-22.19510358 9.88430463 -26.60353649 11.48939059 -31 13.125 C-33.07446021 13.90169914 -35.14867021 14.67906683 -37.22265625 15.45703125 C-38.31078613 15.86518066 -39.39891602 16.27333008 -40.52001953 16.69384766 C-46.19130867 18.82247098 -51.86211575 20.95228006 -57.52905273 23.09246826 C-59.39043022 23.7947412 -61.25281987 24.49432952 -63.11523438 25.19384766 C-68.86144797 27.36668469 -74.54056718 29.59204071 -80.11132812 32.18530273 C-83.00599323 33.43394512 -85.94868634 34.22094119 -89 35 C-88.45703125 33.16015625 -88.45703125 33.16015625 -87 31 C-84.53728364 29.95867577 -82.24274154 29.17365561 -79.6875 28.4375 C-71.1672117 25.79263097 -62.83099433 22.75039624 -54.5 19.5625 C-53.87308258 19.3232782 -53.24616516 19.0840564 -52.60025024 18.83758545 C-45.01367259 15.94211683 -37.43981648 13.0143021 -29.875 10.0625 C-25.11325045 8.20489143 -20.35070769 6.3510912 -15.5625 4.5625 C-14.73878906 4.25441406 -13.91507812 3.94632813 -13.06640625 3.62890625 C-11 3 -11 3 -8 3 C-8 2.34 -8 1.68 -8 1 C-5.2201184 -0.3899408 -3.0813674 -0.18488204 0 0 Z " fill="#4751ED" transform="translate(428,929)"/>
<path d="M0 0 C2.31489295 3.66395895 2.24771431 6.78769545 2.24291992 11.06005859 C2.24481827 11.76301559 2.24671661 12.4659726 2.24867249 13.19023132 C2.25237134 15.50974754 2.24168627 17.82894918 2.23046875 20.1484375 C2.22927599 21.76502445 2.22882399 23.3816121 2.2290802 24.99819946 C2.2275167 28.38588808 2.21923912 31.77347083 2.20581055 35.16113281 C2.18884819 39.49425301 2.18499559 43.82725661 2.18575573 48.16040611 C2.18548315 51.49935002 2.17998737 54.83826866 2.17275429 58.17720413 C2.16958121 59.77432692 2.16760341 61.37145257 2.16686058 62.96857834 C2.16468098 65.20615205 2.15590127 67.44360484 2.14526367 69.68115234 C2.14145187 70.95260101 2.13764008 72.22404968 2.13371277 73.5340271 C2.00853265 76.77882493 1.61488706 79.81538461 1 83 C1.66 83 2.32 83 3 83 C2.979375 83.763125 2.95875 84.52625 2.9375 85.3125 C2.87057159 88.10185786 2.87057159 88.10185786 4 91 C3.505 91.99 3.505 91.99 3 93 C3.66 93 4.32 93 5 93 C6.04884937 96.49616455 6.96432759 99.75921121 7.5 103.375 C7.665 104.24125 7.83 105.1075 8 106 C8.66 106.33 9.32 106.66 10 107 C9.01 107 8.02 107 7 107 C6.20219439 105.00244091 5.41207575 103.00181115 4.625 101 C4.18414063 99.88625 3.74328125 98.7725 3.2890625 97.625 C0.79981518 90.6249348 -0.29542611 84.57059667 -0.22705078 77.19726562 C-0.22734283 76.35729034 -0.22763489 75.51731506 -0.22793579 74.65188599 C-0.22655363 71.90323186 -0.21104539 69.15485618 -0.1953125 66.40625 C-0.1915784 64.48954415 -0.18873331 62.57283638 -0.18673706 60.65612793 C-0.17913183 55.63214774 -0.15951027 50.60828474 -0.1373291 45.58435059 C-0.11680343 40.44947901 -0.10772101 35.31458835 -0.09765625 30.1796875 C-0.07626127 20.11974042 -0.04216315 10.05987999 0 0 Z " fill="#4C4EF3" transform="translate(563,801)"/>
<path d="M0 0 C3.9786023 1.62761003 6.80309944 4.39922402 9.875 7.3125 C10.89193052 8.26831066 11.91015826 9.22274305 12.9296875 10.17578125 C13.43040771 10.64773926 13.93112793 11.11969727 14.44702148 11.60595703 C16.02046472 13.01837031 17.6632418 14.28720582 19.33984375 15.57421875 C22 18 22 18 22.76171875 20.28125 C22.61943271 24.53485373 22.41904445 26.45291419 19.75 29.9375 C14.61046786 33.79214911 10.89847053 34.32273203 4.5 34.25 C3.67717529 34.24613281 2.85435059 34.24226562 2.0065918 34.23828125 C-7.3848014 34.11073616 -16.68040742 33.09988869 -26 32 C-25.67 31.34 -25.34 30.68 -25 30 C-21.85378318 30.13822199 -18.70814434 30.28685084 -15.5625 30.4375 C-14.66466797 30.47681641 -13.76683594 30.51613281 -12.84179688 30.55664062 C-11.56079102 30.61948242 -11.56079102 30.61948242 -10.25390625 30.68359375 C-9.46314697 30.72025146 -8.6723877 30.75690918 -7.85766602 30.79467773 C-6 31 -6 31 -5 32 C-3.65732587 32.08631874 -2.31025678 32.10706473 -0.96484375 32.09765625 C-0.15595703 32.09443359 0.65292969 32.09121094 1.48632812 32.08789062 C2.7615332 32.07532227 2.7615332 32.07532227 4.0625 32.0625 C4.91650391 32.05798828 5.77050781 32.05347656 6.65039062 32.04882812 C8.76695663 32.03700373 10.88348685 32.01906769 13 32 C13 31.34 13 30.68 13 30 C14.2065625 29.5359375 14.2065625 29.5359375 15.4375 29.0625 C17.89080405 28.23664655 17.89080405 28.23664655 19 27 C19.86242527 23.18068809 20.19088043 21.63643845 19 18 C15.48159722 14.33840641 11.57820925 11.35360183 7.56005859 8.26611328 C4.59050533 5.85608147 2.33749606 3.00535208 0 0 Z " fill="#5936CE" transform="translate(552,933)"/>
<path d="M0 0 C0.33 0 0.66 0 1 0 C3.55595288 14.55121691 -0.7391193 28.86316106 -9 41 C-16.65236243 51.45036279 -27.66760036 58.19932467 -40 62 C-40.66 61.67 -41.32 61.34 -42 61 C-39.79377402 58.79377402 -38.34427562 58.28715938 -35.4375 57.25 C-26.53990789 53.78840077 -16.92623306 47.82978046 -11.6875 39.625 C-11.130625 38.75875 -10.57375 37.8925 -10 37 C-9.34 37 -8.68 37 -8 37 C-7.9175 36.360625 -7.835 35.72125 -7.75 35.0625 C-7.08763123 32.35782754 -6.26189079 30.35849691 -5.0625 27.875 C-1.06313514 19.10827629 -0.63010415 9.50130728 0 0 Z " fill="#963BE8" transform="translate(679,873)"/>
<path d="M0 0 C3.32497236 1.67378195 6.50982365 3.481456 9.69873047 5.40136719 C11.85402925 6.64746026 14.01158372 7.88966001 16.17138672 9.12792969 C17.22600098 9.73668945 18.28061523 10.34544922 19.3671875 10.97265625 C29.09681974 16.38412255 29.09681974 16.38412255 39.63623047 19.77636719 C39.63623047 20.43636719 39.63623047 21.09636719 39.63623047 21.77636719 C33.36437588 21.27843279 28.1985837 18.43110092 22.63623047 15.71386719 C21.61037842 15.22233154 20.58452637 14.7307959 19.52758789 14.22436523 C13.79970829 11.44640456 8.34249109 8.45957672 2.94873047 5.08886719 C-3.38236224 1.3557319 -8.16189707 0.89591849 -15.36376953 1.77636719 C-16.34345703 1.86015625 -17.32314453 1.94394531 -18.33251953 2.03027344 C-20.68351703 2.23829709 -23.02174992 2.48620547 -25.36376953 2.77636719 C-17.68698162 -2.34149142 -8.71837051 -3.17146705 0 0 Z " fill="#414EDF" transform="translate(439.36376953125,888.2236328125)"/>
<path d="M0 0 C0.66 0.33 1.32 0.66 2 1 C-16.72179069 14.01896066 -35.3311163 17.31085349 -57.68359375 13.4375 C-58.44800781 13.293125 -59.21242188 13.14875 -60 13 C-60 12.67 -60 12.34 -60 12 C-54.04296116 11.90494087 -48.2823505 11.93091359 -42.375 12.75 C-27.72926724 14.03102362 -14.47508598 7.95358746 -2 1 C-1.34 0.67 -0.68 0.34 0 0 Z " fill="#1D72D4" transform="translate(668,382)"/>
<path d="M0 0 C0.495 0.99 0.495 0.99 1 2 C0.15179687 2.63164062 -0.69640625 3.26328125 -1.5703125 3.9140625 C-13.56681454 12.99902678 -25.36375015 22.71093035 -32.66796875 36.0859375 C-33.10753906 36.71757812 -33.54710937 37.34921875 -34 38 C-34.99 38 -35.98 38 -37 38 C-28.30405628 22.92307369 -15.23967253 8.62622974 0 0 Z " fill="#336EE7" transform="translate(683,419)"/>
<path d="M0 0 C4.79833434 3.87557774 9.42907477 7.92483886 13 13 C13 13.66 13 14.32 13 15 C13.66 15 14.32 15 15 15 C15 15.99 15 16.98 15 18 C15.66 18 16.32 18 17 18 C19.64343482 22.89524967 21.82605107 27.8633306 23.8125 33.0625 C24.25207031 34.20847656 24.69164062 35.35445312 25.14453125 36.53515625 C26.09977681 40.40411885 25.80426733 43.12668801 25 47 C22.93955742 43.90933614 22.75448213 42.8525262 22.375 39.3125 C19.83317656 24.45564051 10.69331612 12.09252602 -1 3 C-0.67 2.01 -0.34 1.02 0 0 Z " fill="#286EE5" transform="translate(537,511)"/>
<path d="M0 0 C0.99 0.33 1.98 0.66 3 1 C2.28714844 1.66644531 1.57429687 2.33289063 0.83984375 3.01953125 C-8.09322531 11.54491872 -14.30447304 20.51363028 -19 32 C-19.33 32.66 -19.66 33.32 -20 34 C-20.99 34 -21.98 34 -23 34 C-18.96766278 20.07010778 -10.3324138 9.83777697 0 0 Z " fill="#03B9E7" transform="translate(580,264)"/>
<path d="M0 0 C-1 1 -1 1 -3.89161682 1.12025452 C-5.18623337 1.11803391 -6.48084991 1.11581329 -7.81469727 1.11352539 C-8.88293228 1.11374443 -8.88293228 1.11374443 -9.9727478 1.1139679 C-12.33733112 1.1132687 -14.70183661 1.10547606 -17.06640625 1.09765625 C-18.70165463 1.09579209 -20.33690357 1.09436818 -21.97215271 1.09336853 C-26.28434785 1.08954318 -30.59650952 1.07971275 -34.90869141 1.06866455 C-39.30565946 1.0584508 -43.70263289 1.05387099 -48.09960938 1.04882812 C-56.73308831 1.03809049 -65.36654 1.02101387 -74 1 C-74 0.67 -74 0.34 -74 0 C-73.22627548 -0.01030746 -72.45255096 -0.02061493 -71.65538025 -0.03123474 C-64.34356575 -0.12944269 -57.03183076 -0.23198893 -49.72014523 -0.33933926 C-45.96165167 -0.39437036 -42.20315011 -0.44775719 -38.44458008 -0.49731445 C-34.8135248 -0.54525212 -31.1825569 -0.5976028 -27.55160713 -0.65294075 C-26.17024491 -0.67323193 -24.78885885 -0.69196566 -23.40745354 -0.70907402 C-21.46420557 -0.73341372 -19.52103811 -0.76393745 -17.57788086 -0.79467773 C-16.47423691 -0.81022202 -15.37059296 -0.8257663 -14.23350525 -0.84178162 C-10.9005303 -0.9498735 -10.9005303 -0.9498735 -7.2412262 -1.57142639 C-3.90077397 -2.01312024 -2.72954385 -1.85608982 0 0 Z " fill="#7048F2" transform="translate(865,500)"/>
<path d="M0 0 C0.495 1.485 0.495 1.485 1 3 C-3.33788378 10.01123075 -9.78534954 15.97468946 -15.5625 21.8125 C-16.48095703 22.74497559 -16.48095703 22.74497559 -17.41796875 23.69628906 C-21.6550747 27.90409587 -26.13708808 31.53765776 -31 35 C-31.66 34.67 -32.32 34.34 -33 34 C-32.28457031 33.35675781 -31.56914063 32.71351563 -30.83203125 32.05078125 C-19.78342905 22.05790937 -8.94260734 11.96850469 0 0 Z " fill="#803AD8" transform="translate(926,834)"/>
<path d="M0 0 C2 2 2 2 2 5 C2.66 5 3.32 5 4 5 C4.268125 5.825 4.53625 6.65 4.8125 7.5 C8.96808832 19.74804979 14.50588848 31.276349 21.28515625 42.30078125 C22 44 22 44 21 47 C18.91091517 43.19062514 16.82979987 39.37695093 14.75 35.5625 C13.87021484 33.95858398 13.87021484 33.95858398 12.97265625 32.32226562 C9.70270069 26.31510008 6.646541 20.30704816 4 14 C3.58234375 13.03449219 3.1646875 12.06898438 2.734375 11.07421875 C2.24710937 9.89279297 2.24710937 9.89279297 1.75 8.6875 C1.41484375 7.88699219 1.0796875 7.08648438 0.734375 6.26171875 C0 4 0 4 0 0 Z " fill="#2173E5" transform="translate(301,777)"/>
<path d="M0 0 C0.33 0 0.66 0 1 0 C1.05506505 1.52040718 1.09326375 3.04142704 1.125 4.5625 C1.14820313 5.40941406 1.17140625 6.25632812 1.1953125 7.12890625 C0.95742998 10.62577934 0.00744141 13.64547288 -1 17 C-3.30863932 27.33916938 -4.55933592 37.42406208 -5 48 C-5.33 48 -5.66 48 -6 48 C-7.29044233 38.33570906 -6.95023146 29.65765871 -5.25 20.0625 C-4.99621582 18.62571899 -4.99621582 18.62571899 -4.73730469 17.15991211 C-3.61555919 11.25434246 -2.06242439 5.64549418 0 0 Z " fill="#118ADF" transform="translate(336,640)"/>
<path d="M0 0 C0.83557039 2.35863539 1.13403589 3.60405489 0.3203125 6.0078125 C-6.01391087 17.22725389 -13.87278273 25.17566904 -26 30 C-28.32160069 30.40709431 -30.65514735 30.76078959 -33 31 C-33 30.34 -33 29.68 -33 29 C-31.35 29 -29.7 29 -28 29 C-28 28.34 -28 27.68 -28 27 C-26.98679687 26.63648438 -26.98679687 26.63648438 -25.953125 26.265625 C-21.09258087 24.439409 -17.4526351 23.02807429 -14 19 C-13.34 19 -12.68 19 -12 19 C-12 18.34 -12 17.68 -12 17 C-11.195625 16.360625 -10.39125 15.72125 -9.5625 15.0625 C-6.76279268 13.18964068 -6.76279268 13.18964068 -6 10 C-5.34 9.67 -4.68 9.34 -4 9 C-3.34786708 6.97536745 -3.34786708 6.97536745 -3 5 C-2.34 5 -1.68 5 -1 5 C-0.67 3.35 -0.34 1.7 0 0 Z " fill="#6F3FE4" transform="translate(899,469)"/>
<path d="M0 0 C8.18909442 -0.06977948 16.37806279 -0.12295211 24.56738186 -0.15543652 C28.37079372 -0.17103429 32.17400085 -0.19216348 35.97729492 -0.22631836 C39.65370229 -0.25912385 43.32991383 -0.2768972 47.00645638 -0.28463173 C48.40296571 -0.29013751 49.79946539 -0.30088814 51.19589043 -0.31719017 C59.1306797 -0.40606418 65.63254469 -0.05772319 73 3 C73 3.33 73 3.66 73 4 C69.42328846 4.1834211 66.6195939 3.90359818 63.12524414 3.01806641 C56.93194201 1.60236031 50.76151202 1.64574232 44.43359375 1.5859375 C43.15895767 1.56657135 41.88432159 1.5472052 40.57106018 1.5272522 C37.21252731 1.47787583 33.85409602 1.43649319 30.49542236 1.39910889 C27.05609651 1.35881664 23.61692995 1.30784056 20.17773438 1.2578125 C13.45192604 1.16211764 6.72604726 1.07697318 0 1 C0 0.67 0 0.34 0 0 Z " fill="#0EA2FA" transform="translate(479,406)"/>
<path d="M0 0 C0.66 0 1.32 0 2 0 C2.02749766 1.37488287 2.0466164 2.74993391 2.0625 4.125 C2.07410156 4.89070312 2.08570313 5.65640625 2.09765625 6.4453125 C2 9 2 9 1.5234375 11.60546875 C0.62548711 17.42874406 0.63836122 23.32512651 0.48242188 29.20898438 C0.44826172 30.16482422 0.41410156 31.12066406 0.37890625 32.10546875 C0.3538501 32.97324951 0.32879395 33.84103027 0.30297852 34.73510742 C0 37 0 37 -2 40 C-2.04990593 35.74993401 -2.08595579 31.50002901 -2.10986328 27.24975586 C-2.11984313 25.80766829 -2.13343184 24.36560054 -2.15087891 22.92358398 C-2.24384199 15.0353929 -2.17375461 7.65948967 0 0 Z " fill="#0C91E9" transform="translate(288,664)"/>
<path d="M0 0 C1.24659153 3.62565001 0.78926902 6.45212423 0.125 10.1875 C-0.05804688 11.25355469 -0.24109375 12.31960938 -0.4296875 13.41796875 C-1 16 -1 16 -2 17 C-2.5394725 20.29123558 -2.9661339 23.59204015 -3.40234375 26.8984375 C-4 30 -4 30 -6 33 C-6.44218238 23.71417006 -4.76773893 15.07018429 -3 6 C-2.34 6 -1.68 6 -1 6 C-0.67 4.02 -0.34 2.04 0 0 Z " fill="#0B93E6" transform="translate(295,630)"/>
<path d="M0 0 C4.24066255 4.24066255 3.18382449 10.01617118 3.1875 15.625 C3.19974609 16.58535156 3.21199219 17.54570312 3.22460938 18.53515625 C3.23672111 24.48605541 3.00968879 30.33839718 1 36 C0.34 36.66 -0.32 37.32 -1 38 C-0.83628906 36.82566406 -0.67257812 35.65132813 -0.50390625 34.44140625 C0.25398412 27.62039293 0.10641255 20.79123611 0.0625 13.9375 C0.05747314 12.58138187 0.05291234 11.22526192 0.04882812 9.86914062 C0.03712079 6.57938006 0.02072211 3.28971406 0 0 Z " fill="#6846E6" transform="translate(901,430)"/>
<path d="M0 0 C1.12708524 3.38125573 0.93898965 3.69113412 -0.4375 6.75 C-3.03446829 13.3202101 -2.05363721 18.60196692 -0.046875 25.1796875 C0.85686683 27.20549917 0.85686683 27.20549917 3.109375 27.7578125 C3.73328125 27.83773437 4.3571875 27.91765625 5 28 C4.34 28.66 3.68 29.32 3 30 C-1.59728142 25.89972197 -4.40218526 22.04618512 -5.3203125 15.83203125 C-5.61895502 10.04832121 -4.08413021 5.85533751 -1 1 C-0.67 0.67 -0.34 0.34 0 0 Z " fill="#813AE3" transform="translate(892,869)"/>
<path d="M0 0 C2.375 1 2.375 1 4 2 C4 2.99 4 3.98 4 5 C3.01 4.67 2.02 4.34 1 4 C-5.74073673 3.25102925 -10.56932861 5.1358143 -16.7890625 7.6875 C-20.80519349 9.32913018 -24.87174394 10.67056161 -29 12 C-29 11.34 -29 10.68 -29 10 C-26.06574629 8.82504857 -23.12710487 7.66149148 -20.1875 6.5 C-19.35412109 6.16613281 -18.52074219 5.83226562 -17.66210938 5.48828125 C-16.85966797 5.17246094 -16.05722656 4.85664062 -15.23046875 4.53125 C-14.49207764 4.23798828 -13.75368652 3.94472656 -12.99291992 3.64257812 C-11 3 -11 3 -8 3 C-8 2.34 -8 1.68 -8 1 C-5.2201184 -0.3899408 -3.0813674 -0.18488204 0 0 Z " fill="#464CE5" transform="translate(428,929)"/>
<path d="M0 0 C23.55191887 -1.01907341 23.55191887 -1.01907341 32 6.625 C33.36768262 8.05116905 34.71506425 9.4988491 36 11 C35.01 11.33 34.02 11.66 33 12 C32.360625 11.05125 31.72125 10.1025 31.0625 9.125 C26.79853126 4.10718044 21.15704585 4.25542039 14.96484375 3.515625 C14.25110596 3.42958008 13.53736816 3.34353516 12.80200195 3.25488281 C11.3681852 3.08701193 9.93307019 2.92983068 8.49682617 2.78417969 C4.94133191 2.39404207 3.03571617 2.02381078 0 0 Z " fill="#5741E7" transform="translate(518,921)"/>
<path d="M0 0 C0.44730469 0.39832031 0.89460937 0.79664063 1.35546875 1.20703125 C4.13848965 3.64588325 6.74827906 5.85003859 9.9375 7.75 C10.9584375 8.36875 10.9584375 8.36875 12 9 C12 9.66 12 10.32 12 11 C12.75925781 11.20496094 13.51851562 11.40992188 14.30078125 11.62109375 C15.29464844 11.89050781 16.28851562 12.15992188 17.3125 12.4375 C18.29863281 12.70433594 19.28476562 12.97117187 20.30078125 13.24609375 C22.21517526 13.78079425 24.11433615 14.37144538 26 15 C26.33 15.99 26.66 16.98 27 18 C15.71487678 15.94271205 5.65879036 10.59208386 -1 1 C-0.67 0.67 -0.34 0.34 0 0 Z " fill="#5E3ED9" transform="translate(578,916)"/>
<path d="M0 0 C0.99 0.33 1.98 0.66 3 1 C-3.08132895 8.59431658 -9.38970713 15.86529976 -16 23 C-16.66 22.67 -17.32 22.34 -18 22 C-18 20 -18 20 -15.875 17.75 C-14.451875 16.38875 -14.451875 16.38875 -13 15 C-11.9374491 13.89588232 -10.87494885 12.79171588 -9.8125 11.6875 C-7 9 -7 9 -5 9 C-4.9175 8.443125 -4.835 7.88625 -4.75 7.3125 C-3.77389987 4.30285794 -2.04811186 2.37845248 0 0 Z " fill="#8837E0" transform="translate(959,855)"/>
<path d="M0 0 C0.66 0.66 1.32 1.32 2 2 C-3.66600123 7.24377518 -9.46149054 10.99185531 -16.5 14.0625 C-17.20640625 14.37324463 -17.9128125 14.68398926 -18.640625 15.00415039 C-20.39916353 15.7400698 -22.1977099 16.37888367 -24 17 C-24.66 16.67 -25.32 16.34 -26 16 C-23.79377402 13.79377402 -22.34427562 13.28715938 -19.4375 12.25 C-12.10829675 9.41152244 -6.00078637 5.0329176 0 0 Z " fill="#8F37E0" transform="translate(663,918)"/>
<path d="M0 0 C0.99 0.33 1.98 0.66 3 1 C-1.72745904 5.99759955 -6.20777465 9.46213766 -13 11 C-22.11232449 10.88767551 -22.11232449 10.88767551 -25 8 C-23.25008666 7.97284617 -21.50005055 7.95353449 -19.75 7.9375 C-18.28820312 7.92009766 -18.28820312 7.92009766 -16.796875 7.90234375 C-14.34241322 7.98804423 -12.33831086 8.29293934 -10 9 C-9.67 8.34 -9.34 7.68 -9 7 C-6.98670877 5.6462352 -4.9056484 4.44473692 -2.8125 3.21875 C-0.8535328 2.11764032 -0.8535328 2.11764032 0 0 Z " fill="#7E39D9" transform="translate(923,892)"/>
<path d="M0 0 C2 3 2 3 1.78515625 5.42578125 C-0.41946639 14.23235491 -3.86979176 25.89149843 -11 32 C-10.5020163 28.26512223 -10.12508244 26.18762365 -8 23 C-7.34 23 -6.68 23 -6 23 C-5.8453125 21.700625 -5.8453125 21.700625 -5.6875 20.375 C-5 17 -5 17 -3.5625 14.3125 C-1.38924588 9.70520126 -0.75761757 5.00918914 0 0 Z " fill="#1F86EB" transform="translate(697,334)"/>
<path d="M0 0 C0.99 0.33 1.98 0.66 3 1 C2.46890625 1.95777344 1.9378125 2.91554688 1.390625 3.90234375 C-3.87529527 13.71746168 -6.9439181 23.07030148 -9 34 C-9.33 34 -9.66 34 -10 34 C-11.18335501 24.68655782 -7.70102014 17.28667436 -4 9 C-3.57460938 8.02289062 -3.14921875 7.04578125 -2.7109375 6.0390625 C-1.82484204 4.01825486 -0.91572646 2.00755416 0 0 Z " fill="#5756EC" transform="translate(691,527)"/>
<path d="M0 0 C0.33 0 0.66 0 1 0 C1.33 6.6 1.66 13.2 2 20 C2.33 20 2.66 20 3 20 C3.33 22.97 3.66 25.94 4 29 C3.67 29 3.34 29 3 29 C2.67 31.97 2.34 34.94 2 38 C1.67 38 1.34 38 1 38 C0.12980756 29.39421862 -0.12607367 20.8960185 -0.0625 12.25 C-0.05798828 11.0640625 -0.05347656 9.878125 -0.04882812 8.65625 C-0.03719316 5.77077772 -0.0208484 2.88541787 0 0 Z " fill="#0B6BB5" transform="translate(285,683)"/>
<path d="M0 0 C0.99 0.33 1.98 0.66 3 1 C-0.3 9.25 -3.6 17.5 -7 26 C-7.33 26 -7.66 26 -8 26 C-8.24269117 21.5200522 -7.69524762 18.68522757 -5.6875 14.6875 C-3.36232789 9.86541011 -1.59119411 5.10857057 0 0 Z " fill="#375BE5" transform="translate(373,877)"/>
<path d="M0 0 C1 2 1 2 0.29296875 4.4609375 C-0.07183594 5.42257812 -0.43664062 6.38421875 -0.8125 7.375 C-1.34810547 8.80972656 -1.34810547 8.80972656 -1.89453125 10.2734375 C-2.83204063 12.5857398 -3.84331846 14.79131398 -5 17 C-5.66 17 -6.32 17 -7 17 C-7 20.3 -7 23.6 -7 27 C-7.33 27 -7.66 27 -8 27 C-8.43348128 20.44961616 -8.37001591 15.58391801 -5.015625 9.85546875 C-3.96336753 7.93307529 -3.40811341 6.18205575 -2.875 4.0625 C-2.441875 2.5465625 -2.441875 2.5465625 -2 1 C-1.34 0.67 -0.68 0.34 0 0 Z " fill="#3352D1" transform="translate(309,935)"/>
<path d="M0 0 C0.33 0.66 0.66 1.32 1 2 C2.9999208 2.33380816 4.99993666 2.6670469 7 3 C10.17578125 4.3046875 10.17578125 4.3046875 13.3125 5.875 C14.36050781 6.38804687 15.40851563 6.90109375 16.48828125 7.4296875 C19 9 19 9 20 12 C15.15713185 10.50640515 10.68649104 8.54966433 6.125 6.375 C5.43664062 6.05015625 4.74828125 5.7253125 4.0390625 5.390625 C2.35794781 4.59676528 0.67877079 3.79880442 -1 3 C-0.67 2.01 -0.34 1.02 0 0 Z " fill="#4041CA" transform="translate(437,934)"/>
<path d="M0 0 C0.99 0.33 1.98 0.66 3 1 C2.979375 1.763125 2.95875 2.52625 2.9375 3.3125 C2.87057159 6.10185786 2.87057159 6.10185786 4 9 C3.67 9.66 3.34 10.32 3 11 C3.66 11 4.32 11 5 11 C6.04884937 14.49616455 6.96432759 17.75921121 7.5 21.375 C7.665 22.24125 7.83 23.1075 8 24 C8.66 24.33 9.32 24.66 10 25 C9.01 25 8.02 25 7 25 C0 7.47328244 0 7.47328244 0 0 Z " fill="#5444E3" transform="translate(563,883)"/>
<path d="M0 0 C0.609375 1.796875 0.609375 1.796875 1 4 C0.07795725 5.71236511 -0.85659828 7.42070378 -1.88671875 9.0703125 C-3.02913134 11.05049433 -3.80274869 12.97169416 -4.5625 15.125 C-5.71467793 18.34358401 -6.98931044 21.20251887 -9 24 C-9.66 24 -10.32 24 -11 24 C-9.39323547 18.54406329 -6.94969106 13.6697853 -4.375 8.625 C-3.95476562 7.79355469 -3.53453125 6.96210937 -3.1015625 6.10546875 C-2.07133925 4.06843641 -1.03741179 2.03337811 0 0 Z " fill="#020D1C" transform="translate(357,596)"/>
<path d="M0 0 C1.12664063 0.46277344 2.25328125 0.92554688 3.4140625 1.40234375 C4.45304688 1.84707031 5.49203125 2.29179687 6.5625 2.75 C7.74972656 3.24693359 7.74972656 3.24693359 8.9609375 3.75390625 C10.50109603 4.40454465 12.03318923 5.07425803 13.5625 5.75 C13.5625 6.74 13.5625 7.73 13.5625 8.75 C10.47582801 7.592498 7.55249542 6.25589016 4.625 4.75 C-0.97634335 1.92834951 -6.1932476 0.49931029 -12.4375 -0.25 C-12.4375 -0.58 -12.4375 -0.91 -12.4375 -1.25 C-7.48753328 -2.47074367 -4.67357745 -1.95246693 0 0 Z " fill="#2571DC" transform="translate(521.4375,503.25)"/>
<path d="M0 0 C0.99 0.33 1.98 0.66 3 1 C3.83917026 3.42194692 4.49006419 5.70223342 5.0625 8.1875 C6.19828147 12.86290564 7.40914615 17.45369321 9 22 C8.34 22 7.68 22 7 22 C6.01388849 19.46083825 5.03599124 16.9189977 4.0625 14.375 C3.78470703 13.66214844 3.50691406 12.94929687 3.22070312 12.21484375 C1.67271388 8.14904068 0.54164048 4.34683625 0 0 Z " fill="#1C6DD0" transform="translate(334,744)"/>
<path d="M0 0 C0.66 0.33 1.32 0.66 2 1 C-15.60649606 13.12362205 -15.60649606 13.12362205 -26 12 C-26 11.67 -26 11.34 -26 11 C-25.21238281 10.79246094 -24.42476562 10.58492188 -23.61328125 10.37109375 C-15.90293518 8.19029764 -9.44466488 5.31760879 -2.58203125 1.29296875 C-1.30392578 0.65294922 -1.30392578 0.65294922 0 0 Z " fill="#2378E4" transform="translate(668,382)"/>
<path d="M0 0 C-4.78305719 2.17201631 -9.59025622 4.28752334 -14.4375 6.3125 C-15.26121094 6.65925781 -16.08492188 7.00601563 -16.93359375 7.36328125 C-19 8 -19 8 -21 7 C-18.47004654 3.20506981 -15.77213854 2.57739851 -11.625 1.25 C-10.61566406 0.90001953 -10.61566406 0.90001953 -9.5859375 0.54296875 C-3.4812192 -1.46389731 -3.4812192 -1.46389731 0 0 Z " fill="#3E49D8" transform="translate(360,956)"/>
<path d="M0 0 C7.12647031 1.70022388 14.0834212 3.57919742 21 6 C21 6.66 21 7.32 21 8 C16.00549741 7.3146345 11.4032406 5.97984349 6.625 4.4375 C5.88894531 4.20353516 5.15289062 3.96957031 4.39453125 3.72851562 C2.59518762 3.1559972 0.79742723 2.57850686 -1 2 C-0.67 1.34 -0.34 0.68 0 0 Z " fill="#4A3CD2" transform="translate(469,949)"/>
<path d="M0 0 C5.26911032 0.67552696 10.01304785 2.25767804 15 4 C16.175625 4.391875 17.35125 4.78375 18.5625 5.1875 C19.366875 5.455625 20.17125 5.72375 21 6 C17.58741458 8.09439066 17.58741458 8.09439066 14.98535156 7.67626953 C14.2940918 7.41442871 13.60283203 7.15258789 12.890625 6.8828125 C12.13652344 6.60566406 11.38242187 6.32851563 10.60546875 6.04296875 C9.82816406 5.74003906 9.05085938 5.43710937 8.25 5.125 C7.45722656 4.82980469 6.66445313 4.53460937 5.84765625 4.23046875 C3.89332036 3.50053607 1.94593855 2.75203302 0 2 C0 1.34 0 0.68 0 0 Z " fill="#403FCA" transform="translate(479,909)"/>
<path d="M0 0 C0.99 0.66 1.98 1.32 3 2 C-3.31715405 5.44572039 -8.90370975 5.31461385 -16 5 C-16 4.34 -16 3.68 -16 3 C-15.26394531 2.95101562 -14.52789062 2.90203125 -13.76953125 2.8515625 C-12.79371094 2.77679687 -11.81789063 2.70203125 -10.8125 2.625 C-9.84957031 2.55539062 -8.88664062 2.48578125 -7.89453125 2.4140625 C-4.96544096 2.12553837 -4.96544096 2.12553837 -2.32421875 0.8359375 C-1.55722656 0.56007813 -0.79023438 0.28421875 0 0 Z " fill="#3C4BDA" transform="translate(326,966)"/>
<path d="M0 0 C2 2 2 2 2 5 C2.66 5 3.32 5 4 5 C4.696553 6.95513161 5.38199565 8.91422476 6.0625 10.875 C6.44535156 11.96554687 6.82820313 13.05609375 7.22265625 14.1796875 C8 17 8 17 7 19 C3.18344183 12.65074114 0.28230797 7.48116133 0 0 Z " fill="#1D7CEC" transform="translate(301,777)"/>
<path d="M0 0 C0.99 0.33 1.98 0.66 3 1 C-0.96 4.96 -4.92 8.92 -9 13 C-9.33 12.01 -9.66 11.02 -10 10 C-6.7 6.7 -3.4 3.4 0 0 Z " fill="#02CAF5" transform="translate(580,264)"/>
<path d="M0 0 C0.33 0 0.66 0 1 0 C0.7834375 1.7634375 0.7834375 1.7634375 0.5625 3.5625 C-0.19953786 10.35552324 -0.57762966 17.17916837 -1 24 C-1.33 24 -1.66 24 -2 24 C-2.19617816 21.45873828 -2.38217248 18.91739541 -2.5625 16.375 C-2.61857422 15.66214844 -2.67464844 14.94929687 -2.73242188 14.21484375 C-3.02356032 9.98363167 -3.0427244 6.15840989 -2 2 C-1.34 1.34 -0.68 0.68 0 0 Z " fill="#0A71BB" transform="translate(332,664)"/>
<path d="M0 0 C0.66 0 1.32 0 2 0 C2.10256505 5.12825247 2.03286013 9.95046157 1 15 C0.814375 15.94875 0.62875 16.8975 0.4375 17.875 C0.293125 18.57625 0.14875 19.2775 0 20 C-0.33 20 -0.66 20 -1 20 C-1.18451025 6.3667426 -1.18451025 6.3667426 0 0 Z " fill="#0C9CF8" transform="translate(288,664)"/>
<path d="M0 0 C0.66 0.33 1.32 0.66 2 1 C1.625 3.4375 1.625 3.4375 1 6 C0.01 6.495 0.01 6.495 -1 7 C-1.4683265 9.58605332 -1.4683265 9.58605332 -1.625 12.5625 C-1.69976563 13.57441406 -1.77453125 14.58632813 -1.8515625 15.62890625 C-1.90054688 16.41136719 -1.94953125 17.19382812 -2 18 C-2.33 18 -2.66 18 -3 18 C-3.08150744 15.93816367 -3.1394194 13.87538651 -3.1875 11.8125 C-3.22230469 10.66394531 -3.25710938 9.51539063 -3.29296875 8.33203125 C-2.97622579 4.72960801 -2.08533398 2.90633161 0 0 Z " fill="#A23ACE" transform="translate(916,532)"/>
<path d="M0 0 C-6.52428894 3.38732834 -12.61221054 5.47156103 -20 5 C-16.9182501 2.94550007 -14.6904243 2.25524191 -11.125 1.375 C-10.09632813 1.11460937 -9.06765625 0.85421875 -8.0078125 0.5859375 C-5.24120939 0.04698884 -2.80715804 -0.11394368 0 0 Z " fill="#04ABD8" transform="translate(619,248)"/>
<path d="M0 0 C0.66 0.33 1.32 0.66 2 1 C-0.31 6.61 -2.62 12.22 -5 18 C-6.11581881 13.53672476 -5.68986512 12.39238394 -4.0625 8.25 C-3.49208984 6.77273438 -3.49208984 6.77273438 -2.91015625 5.265625 C-2.60980469 4.51796875 -2.30945313 3.7703125 -2 3 C-1.34 3 -0.68 3 0 3 C0 2.01 0 1.02 0 0 Z " fill="#375DE5" transform="translate(382,858)"/>
<path d="M0 0 C1.25425781 0.01804687 2.50851562 0.03609375 3.80078125 0.0546875 C5.22970703 0.08949219 5.22970703 0.08949219 6.6875 0.125 C6.6875 0.455 6.6875 0.785 6.6875 1.125 C2.7275 1.125 -1.2325 1.125 -5.3125 1.125 C-5.3125 1.785 -5.3125 2.445 -5.3125 3.125 C-8.6125 3.455 -11.9125 3.785 -15.3125 4.125 C-10.06674461 0.62782974 -6.31746213 -0.1180834 0 0 Z " fill="#394DCB" transform="translate(429.3125,886.875)"/>
<path d="M0 0 C2 1 2 1 2.6328125 2.8203125 C3.6669317 7.66261668 4.2106585 12.04952534 4 17 C0.23389596 11.35084394 -0.22755952 6.59922601 0 0 Z " fill="#1579DE" transform="translate(295,757)"/>
<path d="M0 0 C0.66 0.33 1.32 0.66 2 1 C0.8758824 2.29243468 -0.24932592 3.58392075 -1.375 4.875 C-2.00148438 5.59429688 -2.62796875 6.31359375 -3.2734375 7.0546875 C-4.47426834 8.4076598 -5.7208345 9.7208345 -7 11 C-7.99 10.67 -8.98 10.34 -10 10 C-6.7 6.7 -3.4 3.4 0 0 Z " fill="#0A091C" transform="translate(706,514)"/>
<path d="M0 0 C0.33 0 0.66 0 1 0 C1.82200425 6.24723226 -1.07448606 10.71317837 -4 16 C-4.66 16 -5.32 16 -6 16 C-4.25192871 10.53262809 -2.34205919 5.24175152 0 0 Z " fill="#3062D9" transform="translate(641,466)"/>
<path d="M0 0 C0.33 0 0.66 0 1 0 C1.18451025 11.52164009 1.18451025 11.52164009 0 17 C-0.33 17 -0.66 17 -1 17 C-1.93213141 10.73960391 -2.20927172 5.97802937 0 0 Z " fill="#02B0DB" transform="translate(353,426)"/>
<path d="M0 0 C5.93002267 -0.37851209 10.47239641 0.89424625 16 3 C16 3.33 16 3.66 16 4 C10.87159632 4.26299506 5.86925247 3.66067137 1 2 C0.67 1.34 0.34 0.68 0 0 Z " fill="#1B80DC" transform="translate(536,406)"/>
<path d="M0 0 C0.33 0.99 0.66 1.98 1 3 C0.01158626 4.68030337 -0.98097573 6.3585229 -2.0078125 8.015625 C-3.63694864 11.27389729 -3.74679633 14.39184772 -4 18 C-4.33 18 -4.66 18 -5 18 C-5.55797683 11.30427803 -4.61897757 6.69734622 -1 1 C-0.67 0.67 -0.34 0.34 0 0 Z " fill="#6F34C5" transform="translate(892,869)"/>
<path d="M0 0 C0.33 0 0.66 0 1 0 C1 3.3 1 6.6 1 10 C0.01 10.33 -0.98 10.66 -2 11 C-2.33 12.98 -2.66 14.96 -3 17 C-4.56393356 13.02623171 -3.36145292 10.18622097 -2.0625 6.25 C-1.68222656 5.07953125 -1.30195313 3.9090625 -0.91015625 2.703125 C-0.60980469 1.81109375 -0.30945313 0.9190625 0 0 Z " fill="#0A80C3" transform="translate(297,619)"/>
<path d="M0 0 C3.58522876 1.47065925 5.44386096 3.40065542 7.8125 6.4375 C8.43769531 7.21996094 9.06289063 8.00242187 9.70703125 8.80859375 C10.34705078 9.89333984 10.34705078 9.89333984 11 11 C10.67 11.99 10.34 12.98 10 14 C9.278125 12.948125 8.55625 11.89625 7.8125 10.8125 C6.05063392 8.32575187 4.36794273 6.36794273 2.1875 4.1875 C1.465625 3.465625 0.74375 2.74375 0 2 C0 1.34 0 0.68 0 0 Z " fill="#04ABE7" transform="translate(677,268)"/>
<path d="M0 0 C6.31718671 0.15792967 9.80727176 3.67506862 14 8 C14.99 9.485 14.99 9.485 16 11 C15.01 11 14.02 11 13 11 C11.640625 9.57421875 11.640625 9.57421875 10.25 7.6875 C7.19959498 3.9013189 4.56579259 2.55236948 0 1 C0 0.67 0 0.34 0 0 Z " fill="#BA4CDF" transform="translate(938,526)"/>
<path d="M0 0 C2 3 2 3 1.57421875 5.84765625 C1.28160156 6.90855469 0.98898437 7.96945312 0.6875 9.0625 C0.26017578 10.65771484 0.26017578 10.65771484 -0.17578125 12.28515625 C-1 15 -1 15 -2 17 C-2.66 16.67 -3.32 16.34 -4 16 C-3.69320312 15.29488281 -3.38640625 14.58976562 -3.0703125 13.86328125 C-1.98405502 10.95734427 -1.3902942 8.24245848 -0.875 5.1875 C-0.70742188 4.21167969 -0.53984375 3.23585938 -0.3671875 2.23046875 C-0.24601563 1.49441406 -0.12484375 0.75835937 0 0 Z " fill="#1991F6" transform="translate(697,334)"/>
<path d="M0 0 C0.66 0 1.32 0 2 0 C0.63016497 3.16115776 0.0109362 3.9927092 -3 6 C-5.26171875 6.1953125 -5.26171875 6.1953125 -7.6875 6.125 C-8.89986328 6.09792969 -8.89986328 6.09792969 -10.13671875 6.0703125 C-11.05904297 6.03550781 -11.05904297 6.03550781 -12 6 C-12 5.67 -12 5.34 -12 5 C-10.02 5 -8.04 5 -6 5 C-6 4.34 -6 3.68 -6 3 C-5.195625 2.690625 -4.39125 2.38125 -3.5625 2.0625 C-1.10919595 1.23664655 -1.10919595 1.23664655 0 0 Z " fill="#5F31D4" transform="translate(571,960)"/>
<path d="M0 0 C0.96500434 2.57726769 1.12398584 3.68133464 0.109375 6.2890625 C-0.33921875 7.05992187 -0.7878125 7.83078125 -1.25 8.625 C-1.90742187 9.78902344 -1.90742187 9.78902344 -2.578125 10.9765625 C-4 13 -4 13 -7 15 C-6.625 12.5625 -6.625 12.5625 -6 10 C-5.34 9.67 -4.68 9.34 -4 9 C-3.34786708 6.97536745 -3.34786708 6.97536745 -3 5 C-2.34 5 -1.68 5 -1 5 C-0.67 3.35 -0.34 1.7 0 0 Z " fill="#7347EE" transform="translate(899,469)"/>
<path d="M0 0 C4.10457819 0.52383603 6.21510512 1.65165184 9.25 4.4375 C9.93578125 5.05496094 10.6215625 5.67242188 11.328125 6.30859375 C13 8 13 8 14 10 C10.7991535 9.65705216 10.04586025 9.05558818 7.9375 6.5 C7.298125 5.675 6.65875 4.85 6 4 C5.01 3.67 4.02 3.34 3 3 C3 2.34 3 1.68 3 1 C2.01 0.67 1.02 0.34 0 0 Z " fill="#4F39C8" transform="translate(540,923)"/>
<path d="M0 0 C0.33 0 0.66 0 1 0 C1.25485425 3.26936494 1.47442831 6.54016741 1.6875 9.8125 C1.76033203 10.74126953 1.83316406 11.67003906 1.90820312 12.62695312 C1.96298828 13.51962891 2.01777344 14.41230469 2.07421875 15.33203125 C2.13182373 16.15421143 2.18942871 16.9763916 2.2487793 17.82348633 C2 20 2 20 -1 23 C-0.67 15.41 -0.34 7.82 0 0 Z " fill="#150D37" transform="translate(904,438)"/>
<path d="M0 0 C2.1640625 0.2421875 2.1640625 0.2421875 4.625 0.875 C5.44226563 1.07867188 6.25953125 1.28234375 7.1015625 1.4921875 C8.04128906 1.74355469 8.04128906 1.74355469 9 2 C9 2.66 9 3.32 9 4 C1.57142857 4.28571429 1.57142857 4.28571429 -2 2 C-1.34 1.34 -0.68 0.68 0 0 Z " fill="#5338D2" transform="translate(516,960)"/>
<path d="M0 0 C0 0.66 0 1.32 0 2 C-5.12919186 4.10428384 -9.5610835 4.21755666 -15 4 C-15 3.67 -15 3.34 -15 3 C-13.7625 2.87625 -12.525 2.7525 -11.25 2.625 C-7.18611105 2.13045267 -4.0000858 0 0 0 Z " fill="#7532CC" transform="translate(839,805)"/>
<path d="M0 0 C5.41390868 0.46671627 9.20517932 1.24297811 14 4 C14 4.33 14 4.66 14 5 C8.72676192 5.68041782 4.60611289 3.24786337 0 1 C0 0.67 0 0.34 0 0 Z " fill="#03B5E6" transform="translate(649,252)"/>
<path d="M0 0 C0 3.73120489 -1.18031476 5.78055689 -3 9 C-3.99 9.495 -3.99 9.495 -5 10 C-4.4454626 6.67277559 -3.75986957 3.8986087 -2 1 C-1.34 0.67 -0.68 0.34 0 0 Z " fill="#089FE4" transform="translate(319,573)"/>
<path d="M0 0 C3.09592835 3.5087188 4.74194623 6.49197399 6 11 C5.34 11 4.68 11 4 11 C4 10.01 4 9.02 4 8 C3.34 8 2.68 8 2 8 C0.93224776 6.03533587 -0.06553465 4.03144641 -1 2 C-0.67 1.34 -0.34 0.68 0 0 Z " fill="#2D6ADE" transform="translate(606,450)"/>
<path d="M0 0 C0.33 0.66 0.66 1.32 1 2 C4.02934491 2.65772428 4.02934491 2.65772428 7 3 C7 3.99 7 4.98 7 6 C1.25 4.125 1.25 4.125 -1 3 C-0.67 2.01 -0.34 1.02 0 0 Z " fill="#4548D5" transform="translate(437,934)"/>
<path d="M0 0 C0.99 0.33 1.98 0.66 3 1 C0.42215154 3.64752004 -1.91648098 5.94432065 -5 8 C-4.75 6.125 -4.75 6.125 -4 4 C-1.9375 2.75 -1.9375 2.75 0 2 C0 1.34 0 0.68 0 0 Z " fill="#893AE5" transform="translate(931,885)"/>
<path d="M0 0 C1.125 1.75 1.125 1.75 2 4 C1.125 6.25 1.125 6.25 0 8 C-0.99 8 -1.98 8 -3 8 C-1.125 2.25 -1.125 2.25 0 0 Z " fill="#078ACF" transform="translate(313,581)"/>
<path d="M0 0 C2.64 0.99 5.28 1.98 8 3 C8 3.66 8 4.32 8 5 C4.44219804 4.39009109 1.3171411 3.4216319 -2 2 C-1.34 1.34 -0.68 0.68 0 0 Z " fill="#433DC4" transform="translate(460,945)"/>
<path d="M0 0 C2.31 1.98 4.62 3.96 7 6 C6.34 6.66 5.68 7.32 5 8 C3.02 5.69 1.04 3.38 -1 1 C-0.67 0.67 -0.34 0.34 0 0 Z " fill="#5339D5" transform="translate(578,916)"/>
<path d="M0 0 C1.32 0.99 2.64 1.98 4 3 C3.67 5.64 3.34 8.28 3 11 C0.87953208 7.46588679 0.46800711 4.05606165 0 0 Z " fill="#090F26" transform="translate(625,499)"/>
<path d="M0 0 C5.03985731 0.44469329 7.37634988 2.71343362 11 6 C10.01 6.33 9.02 6.66 8 7 C5.95703125 5.8203125 5.95703125 5.8203125 3.8125 4.125 C3.09707031 3.57070313 2.38164063 3.01640625 1.64453125 2.4453125 C1.10183594 1.96835937 0.55914063 1.49140625 0 1 C0 0.67 0 0.34 0 0 Z " fill="#04B6E9" transform="translate(663,258)"/>
<path d="M0 0 C0.95465783 2.16967689 1.14401212 3.56328793 0.3984375 5.82421875 C-0.35870385 7.5684743 -1.17609198 9.28627131 -2 11 C-2.33 11 -2.66 11 -3 11 C-3.07427838 7.65747276 -3.06546953 5.1964086 -2 2 C-1.34 2 -0.68 2 0 2 C0 1.34 0 0.68 0 0 Z " fill="#1193E8" transform="translate(348,610)"/>
<path d="M0 0 C-6.39130435 4.26086957 -6.39130435 4.26086957 -10.3125 3.625 C-10.869375 3.41875 -11.42625 3.2125 -12 3 C-4.71428571 -0.42857143 -4.71428571 -0.42857143 0 0 Z " fill="#2F6ADA" transform="translate(704,411)"/>
<path d="M0 0 C0.99 0 1.98 0 3 0 C2.49396008 2.16874252 2.00016187 3.99967627 1 6 C0.01 6 -0.98 6 -2 6 C-1.34 4.02 -0.68 2.04 0 0 Z " fill="#00AADA" transform="translate(559,292)"/>
<path d="M0 0 C0.99 0 1.98 0 3 0 C3.33 0.99 3.66 1.98 4 3 C4.66 3.33 5.32 3.66 6 4 C6 4.99 6 5.98 6 7 C2.58841744 5.86280581 1.88145399 4.95657056 0 2 C0 1.34 0 0.68 0 0 Z " fill="#3852DE" transform="translate(302,962)"/>
<path d="M0 0 C0.99 0.33 1.98 0.66 3 1 C2.45276317 4.37462715 1.9451 6.08235 0 9 C-0.84454356 5.62182575 -1.10844919 3.32534757 0 0 Z " fill="#03A7E0" transform="translate(556,299)"/>
<path d="M0 0 C2.475 0.99 2.475 0.99 5 2 C5 2.99 5 3.98 5 5 C2.36 4.34 -0.28 3.68 -3 3 C-2.01 2.67 -1.02 2.34 0 2 C0 1.34 0 0.68 0 0 Z " fill="#353BBE" transform="translate(427,929)"/>
<path d="M0 0 C1.64350079 3.28700157 2.41321669 5.47930015 3 9 C2.01 9.33 1.02 9.66 0 10 C0 6.7 0 3.4 0 0 Z " fill="#2A67CD" transform="translate(625,502)"/>
</svg>
